<?xml version="1.0" standalone="no"?>
<!DOCTYPE svg PUBLIC "-//W3C//DTD SVG 20010904//EN"
 "http://www.w3.org/TR/2001/REC-SVG-20010904/DTD/svg10.dtd">
<svg version="1.0" xmlns="http://www.w3.org/2000/svg"
 width="1000.000000pt" height="1000.000000pt" viewBox="0 0 1000.000000 1000.000000"
 preserveAspectRatio="xMidYMid meet">
<metadata>
Created by potrace 1.14, written by Peter Selinger 2001-2017
</metadata>
<g transform="translate(0.000000,1000.000000) scale(0.100000,-0.100000)"
fill="#000000" stroke="none">
<path d="M4338 8354 c-4 -5 -28 -8 -54 -7 -30 2 -51 -2 -56 -10 -6 -9 -8 -9
-8 1 0 6 -7 12 -16 12 -9 0 -12 -5 -8 -12 5 -10 4 -10 -6 -1 -9 9 -19 9 -33 2
-14 -8 -18 -8 -13 0 4 6 1 11 -8 11 -8 0 -18 -4 -21 -10 -3 -5 -11 -10 -16
-10 -6 0 -7 6 -3 13 6 9 5 9 -7 0 -8 -7 -24 -12 -34 -11 -11 1 -31 -2 -44 -6
-18 -6 -22 -5 -17 5 4 8 0 5 -8 -5 -10 -13 -16 -15 -16 -7 0 11 -3 11 -17 0
-11 -9 -14 -10 -9 -2 5 9 2 11 -8 7 -9 -3 -14 -10 -11 -14 3 -5 -4 -6 -14 -3
-10 3 -30 -1 -42 -8 -22 -11 -23 -11 -10 4 12 15 10 16 -18 6 -17 -6 -28 -15
-25 -21 4 -6 -1 -6 -13 1 -15 8 -26 6 -43 -6 -22 -16 -23 -16 -17 3 7 18 6 18
-6 2 -8 -10 -17 -15 -20 -11 -4 3 -7 1 -7 -7 0 -10 -3 -10 -15 0 -11 9 -15 9
-15 1 0 -7 -4 -9 -10 -6 -5 3 -10 1 -10 -4 0 -6 -5 -11 -11 -11 -5 0 -8 4 -4
9 3 5 0 13 -6 17 -7 4 -9 3 -6 -3 4 -6 1 -16 -7 -22 -11 -9 -15 -9 -19 1 -3 8
-6 6 -6 -6 -1 -15 -4 -16 -16 -6 -12 10 -15 10 -15 0 0 -7 -8 -10 -20 -7 -11
3 -18 2 -15 -3 3 -4 -2 -11 -11 -14 -10 -4 -13 -2 -8 7 5 9 4 9 -7 0 -7 -7
-24 -13 -37 -13 -15 0 -21 -4 -16 -12 5 -7 3 -8 -5 -4 -7 5 -19 0 -27 -10 -9
-11 -13 -13 -9 -6 9 17 -5 15 -43 -8 -19 -12 -31 -15 -27 -8 4 7 0 5 -8 -4 -8
-10 -17 -14 -21 -10 -4 4 -14 -1 -21 -11 -8 -12 -15 -14 -20 -8 -4 7 -20 1
-43 -16 -20 -16 -33 -21 -28 -13 4 9 2 8 -7 -2 -8 -10 -17 -15 -20 -11 -4 3
-7 1 -7 -6 0 -7 -4 -10 -9 -7 -5 3 -12 -1 -15 -10 -5 -14 -9 -14 -24 -3 -9 7
-14 9 -10 5 4 -5 0 -15 -10 -22 -13 -9 -19 -9 -24 -1 -5 8 -8 6 -8 -5 0 -9 -5
-20 -12 -24 -7 -4 -8 -3 -4 4 5 8 2 10 -8 6 -9 -3 -13 -10 -10 -15 5 -8 -12
-13 -43 -12 -7 1 -11 -3 -8 -7 3 -4 -6 -15 -20 -24 -29 -19 -38 -20 -30 -3 3
6 -2 2 -11 -10 -9 -13 -22 -23 -30 -23 -7 0 -18 -9 -24 -21 -7 -11 -14 -18
-17 -15 -3 3 -13 -3 -23 -14 -9 -10 -22 -20 -30 -22 -7 -2 -22 -11 -32 -21
-10 -10 -23 -15 -28 -12 -6 3 -7 -1 -4 -10 4 -10 2 -15 -7 -13 -8 2 -13 -2
-12 -9 2 -7 -6 -10 -19 -8 -11 3 -18 2 -15 -2 6 -6 -21 -37 -35 -39 -4 -1 -11
-2 -15 -3 -5 -1 -1 -6 7 -11 12 -8 11 -10 -7 -10 -13 0 -23 -4 -23 -10 0 -5
-7 -10 -16 -10 -8 0 -13 -4 -10 -9 3 -5 -3 -11 -14 -14 -11 -3 -20 -12 -20
-21 0 -9 -7 -16 -16 -16 -8 0 -12 -4 -9 -10 3 -5 -1 -10 -10 -10 -10 0 -13 -5
-9 -12 5 -7 2 -9 -9 -5 -12 4 -14 2 -10 -10 4 -11 2 -14 -5 -9 -7 4 -12 1 -12
-9 0 -8 -7 -18 -15 -21 -8 -4 -15 -12 -15 -20 0 -8 -10 -14 -21 -14 -19 0 -20
-2 -8 -17 13 -15 12 -15 -11 -3 -23 12 -24 12 -11 -3 9 -12 10 -17 2 -17 -7 0
-9 -5 -5 -12 5 -8 2 -8 -10 1 -9 8 -16 10 -14 5 4 -16 -23 -55 -34 -48 -7 5
-8 2 -3 -5 4 -8 -1 -18 -14 -27 -12 -9 -19 -19 -16 -24 3 -5 0 -12 -6 -16 -8
-4 -9 -3 -5 4 4 7 2 12 -5 12 -6 0 -9 -8 -6 -20 3 -11 0 -18 -7 -17 -6 1 -10
-4 -8 -10 1 -7 -3 -13 -9 -13 -6 0 -8 -7 -5 -16 3 -8 2 -13 -3 -10 -4 3 -18
-13 -30 -34 -12 -22 -27 -40 -32 -40 -6 0 -8 -4 -5 -8 3 -5 -3 -14 -13 -21
-10 -8 -16 -21 -14 -31 3 -12 -2 -20 -17 -25 -18 -6 -20 -9 -9 -16 12 -7 12
-9 0 -9 -9 0 -11 -7 -8 -21 5 -17 3 -18 -11 -7 -10 8 -13 9 -9 1 4 -6 3 -14
-3 -18 -6 -4 -8 -11 -5 -16 4 -5 1 -9 -6 -9 -7 0 -9 -3 -6 -7 4 -3 -1 -12 -11
-19 -11 -9 -13 -13 -4 -14 7 0 10 -5 7 -10 -4 -6 -11 -7 -17 -4 -7 5 -9 1 -5
-9 3 -9 2 -19 -4 -22 -5 -4 -7 -11 -4 -16 4 -5 -1 -12 -10 -15 -8 -4 -15 -11
-14 -18 3 -24 -1 -37 -11 -31 -9 6 -13 -7 -13 -47 0 -10 -4 -15 -8 -12 -5 3
-10 -5 -11 -18 0 -13 -2 -29 -2 -37 -1 -8 -7 -16 -14 -19 -6 -2 -10 -8 -6 -13
3 -5 0 -9 -7 -9 -9 0 -9 -3 0 -14 10 -11 7 -19 -11 -37 -13 -12 -17 -19 -10
-15 6 4 12 3 12 -3 0 -5 -4 -11 -10 -13 -5 -1 -10 -18 -12 -35 -1 -18 -9 -35
-16 -38 -12 -4 -12 -8 -1 -21 10 -13 10 -17 -2 -25 -8 -5 -10 -9 -6 -9 4 0 3
-8 -2 -18 -7 -13 -6 -23 2 -32 9 -10 9 -11 0 -6 -9 5 -13 -2 -13 -26 0 -19 -6
-40 -12 -47 -10 -11 -10 -13 0 -7 14 8 16 -6 3 -19 -6 -6 -11 -36 -12 -67 -1
-32 -7 -58 -12 -58 -6 0 -7 -3 -4 -7 4 -3 2 -12 -5 -20 -9 -11 -7 -12 7 -7 15
6 16 4 6 -14 -14 -27 -14 -35 2 -26 9 6 9 4 0 -7 -7 -7 -13 -17 -13 -22 0 -4
6 -5 13 -1 9 6 9 5 0 -8 -13 -15 -14 -25 -12 -115 1 -32 5 -50 11 -47 6 4 2
-6 -8 -22 -11 -15 -14 -25 -7 -21 6 4 14 3 18 -3 3 -5 1 -10 -4 -10 -6 0 -11
-5 -11 -11 0 -5 5 -7 10 -4 13 8 9 -17 -4 -27 -6 -4 -4 -13 3 -22 7 -9 13 -34
13 -56 -1 -26 3 -38 10 -34 6 4 6 -2 -1 -15 -7 -11 -8 -21 -3 -21 4 0 8 -8 9
-17 1 -10 2 -35 4 -55 1 -24 6 -35 13 -31 6 4 4 -2 -4 -12 -9 -11 -10 -16 -2
-11 9 5 12 -3 13 -31 1 -21 1 -42 0 -46 -1 -5 3 -6 9 -2 6 4 10 -8 10 -29 0
-50 0 -49 14 -66 8 -8 12 -25 11 -37 -1 -12 2 -20 7 -17 4 3 8 -4 8 -15 0 -12
6 -21 13 -21 8 0 7 -4 -3 -10 -10 -6 -11 -10 -2 -10 6 0 12 -9 12 -21 0 -13 4
-18 12 -13 7 4 8 3 4 -4 -4 -6 2 -28 12 -49 11 -21 17 -44 14 -52 -3 -8 0 -11
7 -7 10 6 13 0 10 -20 0 -4 4 -10 10 -13 6 -4 12 -19 13 -33 1 -15 6 -24 10
-22 4 3 8 -2 8 -10 0 -9 3 -16 8 -16 4 0 16 -13 27 -28 16 -23 16 -25 1 -13
-16 13 -16 13 -5 -13 7 -15 18 -25 24 -22 8 3 10 -4 8 -19 -4 -16 2 -28 19
-39 12 -9 22 -19 21 -21 -7 -13 -2 -25 9 -19 8 5 9 2 5 -9 -3 -10 -2 -17 4
-17 6 0 7 -6 3 -12 -5 -9 -2 -8 9 1 15 12 17 12 11 -3 -3 -9 -1 -16 6 -16 6 0
9 -4 5 -10 -3 -5 4 -19 15 -30 11 -11 18 -26 14 -32 -4 -7 -3 -8 4 -4 7 4 12
2 12 -4 0 -6 5 -8 12 -4 6 4 8 3 4 -4 -3 -6 -1 -14 5 -17 5 -4 8 -14 5 -22 -3
-8 -2 -12 2 -9 4 2 16 -2 27 -10 10 -8 15 -14 11 -14 -5 0 5 -12 22 -27 16
-16 35 -38 41 -51 7 -12 16 -20 22 -17 5 4 9 -4 9 -17 0 -14 3 -19 8 -11 5 8
12 2 21 -18 7 -16 17 -27 22 -23 5 3 9 -2 9 -10 0 -8 9 -18 20 -21 11 -3 20
-11 20 -16 0 -16 60 -70 71 -64 8 6 13 -8 10 -28 -1 -5 3 -6 9 -2 5 3 10 1 10
-5 0 -6 3 -9 8 -7 10 7 32 -19 24 -29 -4 -4 -2 -4 4 -1 6 4 24 -5 40 -18 16
-14 33 -25 37 -25 5 0 5 -5 1 -12 -5 -8 -2 -9 10 -5 10 4 15 3 11 -3 -7 -11
35 -31 47 -23 4 2 5 -3 2 -11 -6 -15 6 -21 30 -17 5 1 5 -6 2 -16 -4 -9 -4
-14 0 -10 4 4 13 2 21 -4 7 -6 13 -8 13 -5 0 4 6 1 14 -6 8 -7 11 -17 8 -22
-3 -5 0 -6 6 -2 6 3 13 2 17 -4 4 -6 11 -8 16 -5 5 4 9 1 9 -4 0 -6 5 -11 11
-11 6 0 17 -7 26 -15 8 -8 19 -13 24 -10 5 4 9 1 9 -4 0 -6 7 -11 15 -11 8 0
15 -5 15 -11 0 -5 5 -7 10 -4 5 3 10 1 10 -5 0 -6 4 -8 10 -5 6 3 10 1 10 -4
0 -6 3 -10 8 -10 20 3 32 -2 26 -13 -4 -6 -3 -8 4 -4 6 3 17 0 25 -8 11 -11
17 -12 26 -3 8 8 11 7 11 -6 0 -11 5 -14 17 -10 10 4 14 2 9 -5 -3 -6 -2 -13
4 -17 5 -3 10 -1 10 5 0 6 5 8 10 5 6 -4 8 -10 5 -14 -2 -5 6 -7 20 -6 13 2
26 -3 29 -10 2 -7 19 -15 38 -19 56 -10 62 -12 66 -24 2 -7 8 -10 13 -6 5 3 9
0 9 -7 0 -6 8 -9 20 -6 11 3 20 1 20 -5 0 -5 4 -7 9 -4 4 3 17 -1 27 -9 10 -8
34 -15 52 -15 20 0 31 -4 27 -10 -3 -5 1 -10 10 -10 10 0 13 5 9 13 -4 6 1 5
12 -4 10 -9 25 -14 32 -12 7 3 22 -3 33 -13 13 -12 19 -13 19 -4 0 9 3 10 14
1 7 -6 22 -8 31 -4 11 4 16 3 12 -4 -4 -6 6 -10 25 -11 17 0 35 -7 39 -14 8
-12 13 -4 10 14 0 4 6 5 14 2 8 -4 15 -11 15 -16 0 -6 9 -8 20 -5 11 3 20 1
20 -4 0 -5 5 -9 11 -9 5 0 7 4 4 10 -3 6 1 7 9 4 9 -3 13 -11 9 -17 -4 -6 -1
-7 8 -2 18 12 49 14 49 3 0 -4 9 -8 21 -8 13 0 18 4 14 13 -4 6 0 4 7 -5 9
-11 19 -14 28 -8 9 5 20 4 28 -3 18 -15 40 -18 48 -6 3 6 11 5 20 -2 8 -6 14
-8 14 -5 0 4 10 1 23 -5 19 -11 20 -10 10 2 -10 12 -8 15 7 15 10 0 17 -3 14
-7 -2 -3 53 -6 121 -7 87 0 125 4 125 12 0 6 4 6 9 -3 5 -8 14 -10 22 -5 20
12 49 12 42 0 -4 -6 1 -5 10 3 14 11 17 11 17 0 0 -12 2 -12 9 0 5 7 14 10 20
7 6 -4 11 -1 11 6 0 9 3 9 10 -2 9 -13 10 -13 10 0 0 13 1 13 10 0 6 -9 10
-10 10 -3 0 8 9 9 31 3 24 -7 28 -6 21 3 -8 9 -4 12 14 13 15 1 21 -2 17 -10
-4 -6 1 -5 10 3 9 7 26 11 37 8 11 -3 20 -1 20 5 0 6 8 7 17 4 9 -4 20 -1 25
6 8 10 11 10 15 1 3 -10 8 -9 20 3 11 11 19 12 26 5 8 -8 17 -5 31 7 14 12 17
13 11 2 -8 -13 -6 -13 8 -2 9 8 21 11 27 7 5 -3 10 0 10 7 0 9 3 9 10 -2 9
-14 15 -7 11 14 -1 5 6 3 15 -5 12 -9 15 -9 10 -1 -7 12 2 16 41 13 11 -1 24
3 28 8 3 6 20 11 36 11 21 0 28 4 23 12 -5 7 -2 9 9 5 9 -3 18 -1 21 6 3 9 5
9 5 0 1 -7 6 -13 12 -13 5 0 7 5 3 12 -5 8 -2 9 10 5 9 -4 15 -3 12 2 -3 5 1
12 10 15 23 9 26 8 19 -6 -4 -7 0 -5 8 5 8 9 24 17 36 17 12 0 20 4 16 9 -3 6
4 8 15 6 11 -2 20 1 20 6 0 6 5 7 10 4 6 -3 10 -2 10 4 0 5 12 11 28 13 17 2
26 8 24 17 -2 11 0 12 11 2 12 -9 16 -8 21 4 3 8 9 15 13 14 21 -3 34 2 28 11
-4 7 3 9 19 6 15 -3 24 -1 21 4 -8 12 25 30 56 30 5 0 7 5 4 11 -5 6 0 6 12
-1 10 -7 20 -24 21 -39 1 -14 7 -28 13 -29 6 -3 5 -10 -3 -20 -11 -13 -11 -14
1 -7 11 6 13 4 8 -8 -3 -10 -2 -17 3 -17 6 0 10 5 10 12 0 6 3 8 6 5 4 -4 1
-13 -5 -21 -10 -11 -7 -17 11 -30 12 -9 17 -16 10 -16 -10 0 -10 -3 0 -14 7
-8 18 -11 23 -8 6 3 5 -1 -2 -9 -10 -12 -9 -18 7 -29 14 -10 16 -16 7 -22 -8
-5 -7 -8 4 -8 9 0 20 -7 23 -16 6 -15 4 -15 -11 -3 -14 11 -13 9 2 -12 11 -15
22 -25 25 -24 4 2 12 -6 20 -18 11 -19 11 -21 -1 -12 -8 6 -3 -1 11 -15 14
-14 19 -21 10 -16 -8 6 2 -6 22 -26 21 -19 42 -47 47 -62 6 -14 17 -26 26 -26
8 0 14 -3 14 -7 -3 -20 2 -34 11 -28 6 3 10 -4 10 -17 0 -13 3 -18 8 -12 5 9
10 8 19 -1 10 -11 10 -15 0 -18 -7 -3 -2 -6 11 -6 12 -1 22 -7 22 -16 0 -14
13 -20 35 -15 6 1 4 -4 -2 -11 -17 -17 12 -50 35 -42 11 5 14 2 9 -10 -3 -9
-1 -19 5 -23 7 -4 8 -3 4 4 -4 7 -2 12 3 12 6 0 11 -7 11 -16 0 -9 9 -18 21
-21 16 -4 17 -8 7 -14 -9 -6 -6 -9 12 -9 20 0 22 -2 10 -10 -12 -8 -11 -10 8
-10 12 0 22 -5 22 -11 0 -5 6 -7 13 -3 9 6 9 4 -1 -8 -10 -13 -10 -17 4 -22 9
-3 20 -3 26 0 6 4 8 -2 3 -16 -5 -14 -3 -20 3 -16 13 8 44 -22 37 -35 -4 -5 1
-9 10 -9 10 0 13 -5 9 -12 -5 -8 0 -7 11 2 17 14 17 13 11 -8 -5 -16 -4 -22 6
-20 7 2 12 -3 10 -11 -3 -12 -1 -12 14 0 15 13 16 12 9 -11 -7 -23 -7 -24 10
-10 11 9 16 10 11 3 -4 -8 -2 -13 6 -13 9 0 9 -3 -2 -10 -12 -8 -10 -10 9 -10
19 0 22 -4 18 -21 -4 -16 -3 -18 8 -9 9 8 14 7 18 -5 4 -9 13 -12 24 -8 17 7
17 6 1 -11 -22 -21 -24 -33 -3 -16 13 10 15 9 15 -9 0 -12 4 -19 10 -16 5 3
17 -3 27 -14 9 -11 20 -18 24 -15 4 2 6 -5 4 -16 -3 -14 1 -20 16 -20 11 0 19
-7 19 -16 0 -11 5 -14 16 -10 12 5 15 2 10 -10 -4 -10 -1 -14 6 -12 17 6 60
-43 53 -60 -5 -12 -3 -13 10 -2 13 11 16 11 13 -1 -2 -8 3 -13 11 -11 12 3 12
0 1 -13 -7 -8 -10 -18 -6 -22 3 -3 6 -2 6 4 0 5 7 10 15 10 8 0 13 -3 11 -6
-6 -10 21 -30 30 -23 5 4 2 -1 -5 -11 -12 -15 -12 -17 1 -12 16 6 48 -18 48
-36 0 -6 4 -7 10 -4 6 4 7 -1 3 -11 -5 -13 -3 -15 7 -9 10 6 12 4 7 -8 -3 -10
-2 -17 2 -17 5 0 12 6 14 13 3 6 6 1 6 -13 1 -18 4 -21 10 -12 6 11 10 10 16
-5 5 -10 9 -21 9 -25 2 -13 56 -57 56 -45 0 6 10 -3 23 -20 12 -18 28 -33 35
-33 7 0 10 -4 7 -10 -3 -5 -1 -10 5 -10 6 0 8 -4 5 -10 -3 -5 1 -10 9 -10 8 0
17 -9 21 -20 3 -11 9 -19 13 -19 20 3 32 -2 27 -11 -3 -5 -1 -10 5 -10 6 0 9
-4 5 -9 -3 -5 0 -13 7 -18 13 -8 18 -9 39 -12 5 0 7 -5 4 -11 -3 -5 -3 -10 2
-10 4 0 19 -9 33 -20 21 -17 22 -19 5 -14 -18 5 -18 4 -2 -6 9 -6 21 -8 27 -5
5 3 7 -4 5 -16 -3 -16 0 -19 12 -15 11 5 14 2 9 -10 -6 -15 -4 -15 11 -3 9 8
14 9 10 2 -4 -6 -1 -18 7 -26 8 -8 12 -18 8 -22 -4 -4 -2 -6 3 -5 23 5 37 -1
32 -13 -2 -6 7 -21 22 -31 l26 -20 -20 25 -20 24 23 -19 c12 -11 21 -25 18
-32 -3 -8 1 -11 9 -8 8 3 18 -4 25 -18 11 -22 10 -22 -4 -4 -9 11 -16 15 -16
9 0 -20 25 -33 40 -20 10 9 11 9 6 0 -4 -8 -2 -13 6 -13 10 0 10 -2 -1 -9 -11
-7 -9 -10 10 -13 14 -2 29 -14 37 -30 8 -17 21 -28 34 -28 18 0 19 -2 7 -17
-10 -11 -10 -14 -1 -9 6 4 12 2 12 -3 0 -6 5 -11 11 -11 5 0 7 5 3 12 -4 7 -3
8 5 4 6 -4 9 -12 6 -17 -7 -11 12 -32 38 -42 9 -3 17 -13 17 -22 0 -8 6 -15
13 -15 8 0 22 -9 32 -20 10 -11 22 -17 27 -14 4 3 8 2 7 -3 -3 -20 2 -34 11
-28 5 3 10 -1 10 -10 0 -9 4 -13 10 -10 5 3 15 -3 22 -15 7 -11 18 -20 24 -20
6 0 18 -8 25 -17 13 -17 13 -17 -6 -3 -19 14 -19 14 -6 -3 11 -14 17 -15 30
-5 9 7 13 9 9 4 -7 -8 14 -36 28 -36 4 0 13 -8 21 -18 8 -10 11 -11 7 -2 -7
12 -5 13 8 3 8 -7 19 -9 24 -5 4 4 2 -1 -5 -11 -12 -15 -12 -17 1 -12 9 4 22
-4 32 -20 9 -14 21 -23 25 -20 5 2 14 -2 21 -10 7 -8 16 -12 22 -9 5 3 16 0
25 -8 14 -11 16 -11 8 1 -5 10 -4 12 3 7 7 -4 12 -14 12 -22 0 -8 5 -14 11
-14 5 0 7 6 3 13 -6 8 -3 8 9 -2 9 -7 23 -11 31 -8 10 4 14 0 11 -14 -2 -10 0
-19 6 -19 5 0 9 5 9 11 0 8 4 9 13 0 8 -6 17 -8 20 -4 4 3 7 1 7 -5 0 -7 3
-11 8 -11 21 4 32 -2 26 -13 -5 -9 -2 -9 9 1 11 9 17 10 17 2 0 -6 7 -11 16
-11 9 0 12 5 8 12 -5 7 -3 8 5 4 7 -5 10 -14 7 -22 -4 -11 -2 -12 14 -4 23 12
33 13 26 2 -3 -5 14 -9 37 -10 23 -1 44 -7 45 -12 2 -6 8 -10 13 -10 6 0 8 4
5 8 -2 4 6 8 19 8 13 0 21 -4 18 -9 -3 -5 0 -7 8 -5 8 3 22 1 31 -3 10 -6 19
-5 23 1 4 6 16 8 27 4 14 -4 18 -2 14 5 -5 7 -1 9 8 5 9 -3 13 -11 10 -18 -3
-6 2 -2 10 8 12 15 16 16 16 5 0 -12 2 -12 10 1 9 13 10 13 10 0 0 -13 1 -13
10 0 8 12 10 12 10 1 0 -8 8 -4 20 10 11 13 20 20 19 14 -3 -23 2 -24 21 -5
11 11 26 20 32 19 10 0 10 -2 1 -6 -15 -5 -17 -23 -4 -23 5 0 13 10 16 21 5
16 9 18 15 9 6 -9 11 -7 19 9 7 12 15 20 19 17 11 -7 73 25 67 34 -3 5 6 7 19
6 15 -2 23 1 20 8 -5 14 41 57 51 48 3 -4 3 2 -1 12 -5 14 -4 17 4 12 7 -4 12
-2 12 3 0 6 5 10 11 9 6 -2 12 7 14 19 1 12 -2 20 -7 17 -5 -4 -7 -13 -3 -23
5 -13 4 -14 -7 -3 -11 11 -8 17 13 35 15 12 29 35 33 50 4 15 11 25 16 22 14
-8 13 8 -1 22 -8 8 -7 13 2 18 8 6 10 4 4 -5 -5 -9 -4 -11 4 -6 6 4 9 18 7 31
-3 17 -1 22 9 19 10 -4 12 5 9 36 -3 26 0 39 6 35 5 -3 8 0 5 7 -2 7 -6 37 -9
65 -3 38 -1 51 8 46 6 -3 2 4 -8 16 -20 22 -20 22 0 15 16 -7 17 -5 7 8 -7 8
-10 18 -6 21 3 4 1 7 -7 7 -10 0 -10 3 -1 14 8 10 9 16 1 21 -6 4 -9 22 -8 41
1 20 -3 39 -11 43 -7 5 -11 17 -9 27 2 11 -2 18 -9 17 -9 -2 -10 4 -3 23 7 17
7 23 0 19 -10 -6 -14 15 -11 44 2 7 -2 11 -6 8 -5 -3 -14 3 -21 13 -10 16 -9
18 5 13 13 -5 13 -3 -3 14 -10 11 -22 18 -25 17 -3 -2 -5 8 -3 21 1 17 -3 25
-14 25 -12 0 -13 3 -4 12 15 15 16 29 1 26 -6 -2 -17 8 -26 22 -14 23 -14 24
1 6 19 -24 21 -9 2 16 -7 10 -17 14 -21 10 -5 -4 -5 1 -2 10 5 13 1 18 -11 18
-15 0 -15 2 -2 10 13 9 13 10 0 11 -8 1 -18 1 -22 0 -5 0 -8 6 -8 15 0 8 5 12
10 9 6 -3 10 -1 10 4 0 6 -9 11 -19 11 -11 0 -23 5 -27 12 -5 7 -2 9 7 4 8 -4
6 -1 -3 7 -10 8 -15 17 -11 20 3 4 -2 7 -13 8 -12 0 -14 3 -6 6 10 4 8 9 -7
20 -12 8 -21 21 -21 29 0 8 -6 13 -12 12 -8 -2 -12 6 -10 22 2 19 0 22 -10 12
-15 -15 -32 -16 -22 0 4 6 -1 17 -12 25 -16 12 -17 15 -4 24 12 9 12 10 -3 5
-17 -6 -69 24 -68 38 2 22 -1 27 -14 23 -18 -7 -30 9 -14 19 8 5 9 3 4 -6 -6
-9 -4 -11 4 -6 12 8 7 20 -10 22 -5 1 -13 2 -19 3 -5 0 -10 7 -10 15 0 8 -9
18 -20 21 -11 3 -20 13 -20 21 0 8 -8 18 -17 21 -29 11 -64 46 -59 59 3 8 -2
11 -16 9 -20 -4 -20 -4 -3 15 10 11 13 20 7 20 -6 0 -13 -6 -16 -12 -5 -10 -7
-10 -12 0 -3 6 -10 9 -16 6 -7 -5 -9 3 -6 20 4 18 2 24 -4 18 -7 -7 -17 -4
-31 8 -11 11 -25 17 -30 13 -6 -3 -7 -1 -3 6 6 9 12 9 24 -1 15 -12 16 -11 3
5 -7 9 -22 17 -32 17 -11 0 -16 5 -13 13 3 8 -3 20 -13 28 -17 13 -17 13 -3
-5 15 -19 14 -19 -12 -2 -24 16 -42 36 -20 22 5 -3 9 1 9 8 0 8 -6 12 -13 9
-6 -2 -15 1 -19 6 -3 6 -11 8 -17 5 -8 -5 -9 -1 -5 10 8 20 -26 58 -46 50 -8
-3 -14 2 -14 10 0 8 5 12 11 9 7 -4 7 -2 0 6 -6 7 -18 13 -25 14 -26 4 -38 18
-32 35 3 9 3 14 -2 10 -9 -8 -35 15 -35 32 0 6 -5 8 -10 5 -6 -3 -10 -1 -10 5
0 6 -5 8 -10 5 -6 -3 -10 -1 -10 4 0 6 0 14 -1 19 0 4 -11 13 -25 20 -13 7
-22 17 -19 21 4 7 -15 21 -35 25 -14 3 -44 25 -34 26 5 0 15 -5 21 -11 8 -8
13 -7 18 2 5 7 4 10 -3 5 -5 -3 -20 6 -31 21 -14 18 -19 21 -14 9 6 -19 6 -19
-13 0 -14 13 -17 22 -10 27 7 5 1 7 -12 4 -20 -5 -22 -3 -10 11 7 9 8 13 2 9
-16 -9 -54 21 -47 38 3 11 1 13 -10 9 -8 -3 -18 0 -23 7 -4 7 -3 10 4 5 6 -3
14 -1 18 5 4 7 3 10 -2 7 -14 -9 -54 10 -54 24 0 9 3 9 11 -2 9 -13 10 -13 6
0 -2 8 -12 17 -22 18 -12 3 -15 0 -10 -9 5 -7 4 -10 -3 -5 -6 4 -9 13 -5 21 3
9 -1 15 -10 15 -9 0 -19 9 -22 20 -4 11 -10 18 -15 15 -4 -3 -11 6 -14 20 -4
14 -11 25 -17 25 -7 0 -6 -6 2 -17 13 -16 12 -17 -3 -4 -10 7 -18 20 -18 27 0
8 -8 14 -17 14 -9 0 -13 3 -10 7 4 3 -3 11 -16 17 -12 6 -26 21 -32 34 -5 12
-17 22 -26 22 -9 0 -20 7 -23 16 -5 12 -3 14 7 8 7 -5 4 -1 -6 8 -11 10 -22
16 -26 14 -3 -2 -19 13 -35 35 -17 21 -33 39 -38 39 -4 0 -5 7 -2 15 5 11 2
13 -12 8 -14 -5 -16 -3 -11 13 7 18 6 18 -9 -1 -16 -20 -16 -20 -10 1 4 14 0
26 -11 35 -17 13 -17 13 -3 -6 14 -19 14 -19 -3 -6 -10 8 -16 20 -13 27 3 9 0
11 -11 7 -13 -5 -15 -2 -10 12 7 16 5 16 -10 4 -11 -9 -14 -10 -9 -1 4 7 2 12
-4 12 -6 0 -8 5 -4 12 5 8 0 9 -15 5 -19 -5 -20 -3 -9 11 11 13 11 15 -4 9
-10 -3 -20 -1 -24 5 -4 7 -3 8 4 4 7 -4 12 -2 12 3 0 6 -7 11 -16 11 -8 0 -12
5 -9 10 3 6 -3 10 -13 10 -11 0 -26 8 -33 17 -10 11 -10 14 -1 9 6 -4 12 -2
12 3 0 6 -4 11 -10 11 -21 0 -25 2 -42 17 -10 9 -16 18 -14 22 2 3 -2 12 -10
19 -8 7 -14 9 -14 5 0 -4 -7 3 -16 15 -8 12 -19 20 -23 17 -5 -2 -7 7 -5 20 2
21 0 23 -17 15 -15 -9 -17 -8 -12 6 5 13 3 15 -7 9 -10 -6 -12 -4 -7 7 3 10
-3 24 -15 35 -12 10 -18 12 -14 6 12 -21 -8 -15 -24 6 -7 11 -17 18 -22 15 -4
-3 -8 0 -8 6 0 21 -26 40 -38 28 -9 -9 -10 -6 -7 10 2 12 1 21 -3 20 -13 -4
-52 13 -52 22 0 5 -12 17 -26 26 -22 15 -27 15 -36 3 -8 -11 -9 -10 -4 4 4 11
-1 20 -12 24 -9 4 -23 13 -31 21 -7 7 -20 11 -27 8 -8 -3 -11 0 -8 9 4 10 0
12 -15 8 -12 -3 -21 -1 -21 6 0 6 -7 11 -16 11 -8 0 -12 5 -8 11 4 8 0 9 -15
4 -13 -4 -21 -2 -21 6 0 8 -5 8 -17 -2 -13 -11 -15 -11 -9 -1 12 20 -24 44
-43 29 -11 -9 -13 -9 -8 0 4 6 1 14 -5 16 -7 3 -4 6 7 6 17 1 17 3 5 11 -13 8
-12 10 4 10 13 0 17 5 13 20 -3 11 -2 18 1 16 4 -2 13 2 20 10 7 8 10 14 6 14
-4 0 1 10 12 22 10 12 13 18 6 14 -11 -7 -11 -4 0 13 7 12 16 21 19 21 6 0 16
27 18 46 0 2 7 12 16 21 9 8 14 22 11 30 -3 8 -1 11 4 8 6 -3 10 1 10 10 0 10
5 13 12 9 7 -4 8 -3 4 5 -4 6 -2 18 4 26 10 12 10 15 -1 16 -8 0 -4 4 9 10 13
5 20 14 17 20 -4 5 1 17 11 25 11 9 12 12 4 8 -12 -7 -13 -5 -3 8 7 8 10 18 6
21 -3 4 -2 7 4 7 9 0 13 13 14 52 0 11 6 15 16 11 13 -5 14 -3 5 12 -8 15 -6
22 6 33 10 7 11 11 5 7 -7 -3 -13 -2 -13 3 0 6 8 13 17 16 15 6 15 8 3 16 -10
7 -11 10 -2 10 6 0 12 8 12 18 0 10 6 24 13 31 10 11 9 12 -3 6 -11 -6 -10 -3
3 12 9 11 15 22 12 25 -10 10 -14 49 -4 43 5 -4 6 -11 3 -17 -4 -6 -2 -8 3 -5
6 4 9 24 6 44 -3 30 -2 35 7 23 9 -12 10 -9 5 13 -3 16 -2 26 3 23 4 -3 7 13
5 35 -2 21 1 39 5 39 4 0 8 10 9 23 4 90 12 140 24 148 9 6 10 9 2 9 -14 0
-12 70 2 70 6 0 3 5 -5 11 -12 8 -12 12 -2 16 9 4 10 8 2 18 -8 10 -8 15 0 20
8 5 8 11 -1 21 -9 11 -9 14 1 14 8 0 9 4 3 13 -10 13 -11 26 -2 42 10 18 3 40
-11 37 -10 -2 -8 3 5 19 16 18 17 21 3 16 -14 -5 -15 -1 -8 24 5 16 6 29 3 29
-3 0 1 8 8 18 13 15 12 16 -3 4 -15 -12 -16 -9 -14 37 1 28 -2 51 -8 51 -5 0
-6 3 -3 6 3 4 2 15 -3 25 -7 12 -7 20 0 24 5 3 10 12 10 18 0 7 -4 6 -11 -3
-8 -12 -9 -9 -7 11 1 14 -4 34 -12 45 -11 13 -11 16 -2 10 11 -7 12 -4 3 13
-7 12 -9 26 -6 31 3 6 2 10 -3 10 -5 0 -8 10 -7 23 1 12 -5 25 -14 29 -13 5
-13 7 3 7 20 1 20 1 0 17 -10 8 -12 12 -4 8 11 -5 10 -1 -3 13 -14 16 -15 23
-6 29 9 5 9 10 -3 18 -16 13 -33 50 -18 41 6 -3 7 1 4 9 -3 9 -10 16 -16 16
-5 0 -7 4 -4 8 2 4 -6 34 -19 65 -14 36 -19 57 -11 58 6 0 0 5 -13 10 -17 7
-21 12 -13 22 8 9 6 16 -9 26 -14 8 -19 19 -16 32 3 10 1 17 -4 13 -5 -3 -9 2
-9 10 0 9 -4 16 -9 16 -5 0 -7 9 -4 20 4 14 0 20 -12 20 -11 0 -15 5 -11 15 3
8 1 15 -4 15 -6 0 -10 7 -10 15 0 8 -5 15 -11 15 -6 0 -8 7 -5 16 3 8 2 12 -3
9 -8 -4 -17 12 -26 45 -7 25 -24 52 -25 40 -1 -9 -6 -4 -12 10 -6 14 -10 28
-10 33 1 4 -5 7 -14 7 -10 0 -14 5 -10 16 3 8 2 12 -3 9 -9 -5 -21 19 -20 40
0 5 -9 13 -21 17 -14 5 -20 14 -16 24 3 9 2 12 -5 9 -6 -4 -13 2 -16 14 -3 11
-9 18 -14 15 -5 -3 -9 5 -9 18 0 17 -3 19 -9 9 -7 -11 -10 -9 -16 8 -3 11 -11
21 -16 21 -6 0 -8 4 -4 9 3 5 -4 13 -16 16 -16 5 -18 9 -9 15 9 6 7 10 -9 15
-12 3 -19 11 -16 16 4 5 1 9 -5 9 -15 0 -41 26 -33 34 4 3 -1 6 -11 6 -9 0
-14 5 -11 10 3 6 1 10 -5 10 -7 0 -9 7 -6 16 3 9 2 12 -5 9 -12 -8 -60 41 -50
50 3 4 -1 5 -9 3 -8 -2 -14 3 -12 10 1 8 -2 11 -7 8 -5 -3 -11 1 -15 9 -3 8
-12 15 -21 15 -8 0 -15 5 -15 10 0 6 -7 10 -16 10 -8 0 -12 5 -9 10 3 6 0 10
-7 10 -8 0 -20 9 -28 20 -8 11 -20 20 -26 20 -7 0 -14 7 -18 15 -3 9 -12 12
-23 8 -10 -3 -15 -3 -11 1 10 11 -31 48 -44 40 -6 -4 -9 -3 -6 2 3 5 0 15 -8
22 -8 7 -14 9 -14 5 0 -4 -4 -3 -8 2 -15 20 -75 69 -67 55 7 -12 6 -13 -7 -3
-8 7 -18 10 -21 6 -4 -3 -7 -1 -7 6 0 7 -5 9 -12 5 -9 -5 -8 -2 1 9 12 15 12
17 -3 11 -9 -3 -16 -1 -16 5 0 6 -7 8 -15 5 -8 -4 -15 -1 -15 6 0 6 -4 8 -10
5 -5 -3 -10 1 -10 10 0 9 -4 13 -10 10 -5 -3 -10 0 -10 7 0 9 -3 9 -10 -2 -6
-10 -10 -11 -10 -2 0 6 -7 12 -15 12 -8 0 -15 3 -15 8 0 8 -49 32 -67 32 -7 0
-13 5 -13 10 0 6 -7 10 -16 10 -9 0 -12 5 -8 13 5 8 2 8 -9 -2 -11 -9 -17 -10
-17 -2 0 6 -7 11 -15 11 -9 0 -18 7 -22 16 -5 13 -7 13 -14 2 -7 -10 -9 -11
-9 0 0 7 -4 10 -10 7 -5 -3 -10 -1 -10 4 0 6 -9 11 -21 11 -13 0 -18 4 -13 13
5 8 2 8 -9 -2 -15 -11 -17 -11 -17 1 0 9 -9 14 -22 13 -13 -1 -29 4 -36 11 -7
7 -20 10 -29 7 -11 -4 -14 -3 -9 5 5 8 0 12 -12 12 -11 0 -35 6 -53 14 -19 7
-40 11 -48 8 -8 -3 -11 0 -7 6 4 6 -2 11 -14 11 -11 1 -30 1 -42 1 -12 1 -25
5 -29 11 -3 5 -22 11 -41 12 -20 1 -44 9 -54 17 -16 14 -17 13 -11 -5 6 -17 5
-18 -5 -5 -7 9 -23 15 -35 14 -13 -1 -23 3 -23 7 0 5 -5 9 -11 9 -5 0 -7 -6
-3 -12 5 -9 2 -9 -9 1 -9 7 -17 10 -17 6 0 -4 -7 -2 -15 5 -12 10 -15 10 -15
0 0 -9 -8 -7 -26 5 -15 9 -23 12 -20 6 4 -6 2 -11 -3 -11 -6 0 -11 5 -11 11 0
8 -6 7 -17 -2 -11 -10 -14 -10 -9 -1 5 9 -6 12 -44 12 -38 0 -49 3 -44 13 5 8
2 8 -9 -2 -11 -9 -17 -10 -17 -2 0 6 -5 11 -11 11 -5 0 -8 -3 -6 -7 3 -5 -6
-9 -20 -10 -19 -1 -22 1 -12 8 19 12 -30 7 -50 -5 -10 -7 -12 -6 -6 4 6 10 3
12 -12 8 -12 -3 -26 -2 -33 2 -7 4 -25 4 -41 0 -18 -6 -29 -4 -32 3 -2 7 -6 7
-9 1z m157 -584 c-2 -4 6 -5 19 -3 13 3 34 0 46 -7 17 -9 21 -9 15 0 -6 9 -3
9 13 1 15 -8 23 -8 28 0 5 8 10 6 16 -5 6 -11 14 -14 25 -7 17 9 53 3 53 -8 0
-9 31 -8 47 2 6 4 15 2 19 -4 5 -8 3 -9 -6 -4 -9 6 -11 4 -5 -4 4 -7 16 -11
26 -8 11 3 19 1 19 -3 0 -10 20 -8 39 4 10 6 12 5 7 -2 -5 -8 0 -12 13 -12 11
0 23 -5 26 -10 5 -8 11 -8 20 0 10 8 15 8 21 -1 4 -8 3 -9 -4 -5 -7 4 -12 5
-12 2 0 -3 9 -10 21 -16 15 -9 24 -8 37 2 9 7 13 8 9 2 -8 -13 19 -27 34 -18
5 3 9 0 9 -7 0 -7 3 -9 7 -6 3 4 12 -1 20 -11 13 -16 14 -16 9 0 -3 12 -1 15
10 11 7 -3 14 -9 14 -13 0 -4 10 -11 23 -15 12 -4 25 -8 30 -10 18 -6 22 -7
30 -6 4 0 7 -4 7 -10 0 -5 4 -8 9 -4 6 3 14 -3 20 -12 6 -11 11 -13 11 -5 0
10 4 9 16 -2 8 -9 20 -14 25 -11 5 4 9 -1 9 -9 0 -10 6 -13 17 -9 11 4 14 3 9
-5 -4 -8 -2 -10 7 -6 8 3 21 -2 30 -10 8 -8 17 -12 21 -9 3 3 8 -2 12 -11 3
-9 10 -13 15 -10 5 3 9 0 9 -5 0 -6 5 -11 11 -11 5 0 7 6 4 13 -4 6 2 1 13
-12 12 -15 24 -21 32 -16 9 5 11 4 6 -3 -4 -7 -2 -12 5 -12 6 0 22 -11 35 -25
24 -26 41 -34 28 -13 -4 7 -3 8 5 4 6 -4 9 -11 6 -16 -3 -4 10 -15 28 -24 19
-8 42 -27 52 -40 10 -14 22 -23 27 -20 4 3 8 -2 8 -10 0 -9 7 -16 15 -16 9 0
18 -7 21 -15 4 -8 10 -12 15 -9 5 3 9 -3 9 -12 0 -10 3 -15 6 -11 8 8 33 -16
27 -25 -2 -5 2 -8 10 -8 8 0 20 -13 27 -30 8 -20 20 -30 33 -30 11 0 17 -3 14
-6 -4 -4 3 -15 14 -25 12 -10 18 -22 15 -28 -4 -6 2 -8 14 -6 11 2 18 0 15 -5
-3 -5 6 -20 20 -34 14 -14 25 -30 25 -36 0 -6 6 -8 13 -4 7 5 6 0 -3 -11 -8
-10 -10 -16 -4 -12 15 9 38 -19 28 -34 -4 -7 -3 -9 3 -6 6 4 17 -1 24 -10 12
-14 12 -16 -1 -9 -9 4 -8 1 3 -7 9 -8 17 -23 17 -33 0 -14 2 -16 9 -6 6 10 10
9 14 -7 3 -14 1 -19 -6 -14 -7 3 -4 -3 6 -14 9 -11 17 -25 17 -31 0 -6 5 -14
12 -18 7 -5 8 -3 3 6 -5 9 -4 11 4 6 6 -4 8 -12 5 -18 -4 -6 -3 -13 2 -17 5
-3 15 -16 22 -28 10 -19 10 -23 0 -23 -7 -1 -2 -7 12 -15 16 -9 20 -15 10 -15
-10 -1 -11 -3 -2 -7 6 -2 10 -9 6 -14 -3 -5 1 -9 9 -9 7 0 14 -7 14 -15 0 -12
-3 -12 -16 -2 -8 6 -2 -6 14 -27 17 -22 25 -37 20 -34 -6 4 -11 -2 -11 -12 0
-14 4 -16 13 -9 9 8 11 6 8 -10 -2 -12 0 -21 4 -21 9 0 24 -53 24 -82 0 -10 4
-18 8 -18 5 0 9 -4 9 -10 0 -5 -6 -8 -12 -6 -7 1 -10 1 -5 -2 4 -2 12 -13 18
-24 8 -15 8 -19 -1 -13 -7 4 -4 -7 5 -25 9 -18 12 -29 7 -26 -6 4 -8 -2 -5
-14 3 -11 9 -18 12 -15 4 2 8 -2 8 -10 0 -8 -5 -11 -11 -8 -6 4 -5 -1 3 -10 8
-10 11 -20 8 -24 -3 -3 0 -18 8 -34 10 -18 11 -30 5 -34 -6 -3 -10 -11 -10
-16 0 -6 5 -7 11 -3 7 4 7 -1 -1 -16 -10 -18 -9 -24 1 -31 12 -8 12 -11 0 -18
-11 -7 -12 -13 -3 -23 6 -8 7 -19 2 -28 -5 -7 -4 -24 1 -39 8 -20 7 -28 -7
-38 -17 -12 -17 -13 -1 -13 14 0 16 -4 7 -19 -13 -26 -13 -34 3 -25 9 5 9 4 0
-6 -9 -10 -10 -17 -1 -27 8 -10 7 -12 -5 -7 -12 4 -14 1 -10 -15 3 -12 -1 -29
-8 -38 -8 -10 -9 -14 -2 -10 8 5 11 0 10 -13 -1 -12 -7 -18 -14 -16 -7 3 -10
-1 -6 -10 3 -7 9 -14 15 -14 5 0 6 -5 3 -10 -4 -6 -12 -7 -18 -4 -7 4 -9 4 -5
-1 4 -4 2 -15 -5 -23 -9 -13 -9 -14 1 -8 6 4 12 3 12 -1 0 -5 -6 -15 -12 -22
-10 -11 -10 -12 -1 -7 9 5 11 2 7 -8 -3 -9 -11 -13 -18 -9 -6 4 -5 -1 3 -10 8
-10 9 -17 3 -17 -6 0 -9 -9 -7 -20 2 -11 0 -20 -6 -20 -5 0 -9 -9 -9 -20 0
-10 -8 -24 -17 -29 -17 -10 -16 -10 2 -11 18 -1 18 -2 -5 -16 -15 -9 -18 -13
-6 -9 15 4 17 3 8 -8 -7 -8 -9 -17 -5 -20 3 -4 1 -7 -6 -7 -7 0 -9 -4 -6 -10
3 -5 1 -10 -6 -10 -6 0 -9 -8 -6 -20 3 -11 -1 -27 -10 -35 -8 -8 -11 -19 -8
-25 4 -6 1 -9 -6 -8 -8 2 -13 -6 -14 -19 0 -12 -4 -25 -9 -30 -5 -5 -6 -2 -1
6 6 10 4 12 -4 7 -7 -4 -10 -13 -8 -19 2 -7 -3 -18 -12 -25 -9 -8 -10 -11 -4
-7 9 4 11 1 7 -10 -4 -9 -13 -14 -21 -11 -11 4 -11 1 -3 -14 8 -15 7 -18 -3
-15 -8 4 -13 -3 -14 -17 -1 -12 -12 -31 -25 -41 -13 -10 -17 -16 -11 -12 9 4
11 1 7 -9 -3 -9 -10 -13 -15 -10 -5 3 -9 -3 -9 -13 0 -10 -9 -24 -21 -31 -13
-9 -19 -20 -16 -32 3 -12 0 -17 -8 -14 -7 3 -16 -4 -20 -15 -3 -12 -10 -21
-15 -21 -4 0 -10 -9 -13 -21 -3 -12 -10 -18 -16 -14 -10 5 -15 -7 -12 -27 0
-4 -6 -5 -14 -2 -9 4 -15 0 -15 -10 0 -8 -9 -20 -20 -26 -11 -6 -20 -18 -20
-26 0 -8 -4 -12 -10 -9 -5 3 -10 -1 -10 -10 0 -9 -4 -13 -10 -10 -5 3 -10 0
-10 -8 0 -21 -47 -60 -62 -51 -7 4 -10 4 -6 0 8 -10 -20 -40 -45 -49 -11 -4
-15 -12 -11 -18 4 -7 3 -9 -3 -6 -6 4 -25 -7 -43 -23 -19 -17 -38 -30 -42 -30
-5 0 -6 -4 -3 -10 4 -6 -1 -7 -11 -3 -12 4 -15 3 -10 -5 6 -11 -5 -17 -26 -13
-5 0 -8 -6 -8 -15 0 -14 -3 -15 -17 -3 -10 7 -15 10 -11 5 4 -5 3 -17 -3 -28
-9 -16 -13 -17 -27 -6 -12 10 -14 10 -8 1 6 -12 -5 -18 -27 -14 -4 0 -6 -5 -5
-11 2 -7 -3 -12 -9 -10 -7 1 -13 -3 -13 -9 0 -5 -4 -7 -10 -4 -5 3 -10 1 -10
-6 0 -7 -3 -9 -7 -6 -3 4 -15 -1 -26 -10 -15 -13 -18 -14 -12 -3 7 12 6 13 -7
3 -8 -7 -19 -9 -23 -5 -5 4 -5 2 -2 -4 9 -17 -29 -49 -39 -33 -4 7 -3 10 4 5
6 -3 13 -2 16 3 4 5 -1 8 -10 7 -8 -1 -20 -9 -25 -17 -5 -8 -9 -10 -9 -5 0 6
-6 2 -13 -8 -7 -9 -22 -18 -35 -19 -12 0 -22 -4 -22 -8 0 -4 -7 -10 -16 -13
-9 -4 -13 -2 -8 5 3 6 -5 3 -20 -6 -14 -10 -26 -13 -26 -9 0 5 -5 1 -11 -8 -5
-10 -16 -15 -24 -12 -8 4 -15 1 -15 -5 0 -6 -6 -8 -14 -5 -8 3 -17 1 -20 -5
-4 -6 -13 -8 -21 -4 -8 3 -15 0 -15 -7 0 -7 -8 -10 -20 -7 -11 3 -20 0 -20 -6
0 -7 -4 -6 -10 3 -8 13 -10 12 -15 -1 -3 -9 -11 -16 -18 -17 -7 0 -29 -2 -49
-3 -21 -1 -35 -6 -32 -10 2 -4 0 -10 -5 -13 -5 -4 -13 -1 -17 5 -5 8 -3 9 6 4
9 -5 11 -4 6 4 -6 9 -11 9 -22 0 -8 -6 -14 -9 -14 -5 0 4 -13 0 -28 -8 -20
-10 -33 -11 -46 -4 -11 6 -16 6 -13 1 4 -6 -13 -11 -40 -12 -25 0 -49 -4 -54
-7 -5 -3 -19 1 -31 7 -20 10 -21 10 -11 -2 10 -12 1 -14 -58 -14 -42 1 -69 -3
-69 -9 0 -6 -4 -5 -9 3 -6 9 -11 10 -15 2 -4 -6 -13 -8 -19 -4 -18 11 -57 11
-63 1 -3 -5 -14 -2 -24 7 -14 12 -20 13 -26 4 -5 -8 -3 -10 6 -4 9 6 11 4 5
-5 -7 -11 -10 -10 -19 2 -7 9 -19 12 -36 8 -14 -4 -31 -2 -38 3 -10 8 -16 7
-23 -4 -7 -11 -9 -11 -9 3 0 14 -4 16 -25 8 -15 -6 -26 -6 -30 0 -3 5 -16 10
-28 10 -12 0 -32 1 -45 1 -14 0 -20 4 -16 11 4 7 2 8 -4 4 -7 -4 -17 -4 -24 0
-13 8 -35 11 -107 14 -30 2 -39 5 -30 12 10 7 8 8 -8 5 -12 -3 -23 -1 -25 3
-2 5 -19 10 -38 13 -23 3 -34 9 -32 18 3 11 1 11 -9 2 -10 -10 -17 -9 -33 5
-14 12 -17 13 -11 2 8 -13 7 -13 -11 0 -10 8 -22 20 -26 25 -5 6 -8 5 -8 -2 0
-10 -6 -10 -25 -1 -13 6 -22 15 -19 19 3 5 -2 6 -10 3 -9 -3 -16 -2 -16 4 0 6
-10 8 -22 4 -14 -3 -19 -2 -14 6 6 11 -20 18 -47 13 -5 -1 -5 4 -1 10 5 9 2
10 -10 6 -9 -4 -15 -3 -12 2 3 5 -1 11 -8 14 -8 3 -17 1 -20 -6 -2 -7 -5 -5
-5 5 -1 9 -6 20 -13 24 -7 5 -8 3 -3 -7 7 -11 6 -11 -9 1 -10 8 -25 15 -34 17
-9 1 -22 10 -30 20 -7 10 -15 16 -17 13 -2 -3 -13 3 -24 12 -11 9 -22 14 -25
11 -3 -4 -6 0 -6 8 0 11 -2 11 -10 -1 -9 -13 -10 -13 -11 0 -1 8 -1 19 0 23 1
5 -3 6 -8 3 -5 -4 -14 2 -20 11 -6 10 -11 12 -11 6 0 -9 -6 -7 -19 5 -11 9
-27 23 -36 30 -8 7 -12 19 -8 25 4 8 1 8 -9 -1 -14 -11 -19 -8 -38 18 -12 16
-28 30 -36 30 -9 0 -12 5 -8 12 5 8 2 9 -11 4 -16 -6 -16 -4 -4 11 12 14 12
16 0 8 -9 -5 -18 -2 -27 10 -8 11 -19 15 -30 11 -13 -5 -14 -4 -6 7 9 10 7 16
-8 27 -10 7 -17 17 -14 22 3 4 -2 5 -10 2 -10 -4 -16 -1 -16 8 0 7 -9 20 -19
28 -11 7 -18 17 -15 22 3 4 -5 8 -18 8 -18 0 -20 2 -8 10 13 9 13 10 0 10 -8
0 -21 14 -28 30 -8 17 -18 28 -23 24 -5 -3 -9 2 -9 11 0 9 -4 13 -10 10 -5 -3
-10 1 -10 9 0 9 -5 16 -11 16 -5 0 -8 3 -6 8 7 10 -19 32 -29 24 -4 -4 -4 -1
0 6 4 6 0 19 -8 28 -9 9 -14 20 -11 25 4 5 -1 9 -10 9 -9 0 -13 5 -10 10 3 6
1 10 -5 10 -7 0 -10 7 -7 15 4 8 1 17 -5 21 -7 5 -8 2 -3 -6 6 -9 4 -11 -4 -6
-7 5 -10 14 -7 22 3 8 1 14 -5 14 -6 0 -7 5 -4 10 3 6 0 10 -8 10 -10 0 -14 7
-10 23 4 18 3 19 -6 7 -9 -13 -11 -13 -11 3 0 9 0 20 1 23 0 4 -4 10 -11 14
-6 4 -12 16 -13 28 0 11 -5 18 -9 16 -4 -3 -8 4 -8 16 0 12 -4 18 -11 15 -6
-4 -9 -1 -8 6 2 8 -2 24 -9 37 -7 12 -14 35 -15 51 -1 16 -5 27 -9 24 -5 -2
-8 4 -8 14 0 11 -6 25 -12 32 -11 10 -9 11 7 5 18 -6 18 -5 -2 10 -15 11 -19
23 -16 37 5 16 3 20 -6 14 -10 -6 -11 -3 -2 14 8 14 8 21 1 21 -5 0 -10 16
-10 36 0 25 -3 33 -12 28 -8 -5 -7 0 2 11 14 17 13 18 -5 11 -16 -6 -17 -5 -8
5 9 9 10 16 2 26 -9 10 -8 13 1 13 9 0 8 7 -4 25 -9 13 -16 28 -16 32 0 4 5 1
10 -7 8 -12 10 -11 10 8 0 12 -5 22 -11 22 -5 0 -7 5 -4 10 3 6 0 10 -7 10
-10 0 -10 2 0 9 15 9 15 20 1 38 -7 7 -5 13 3 16 10 4 10 8 -2 16 -9 6 -10 11
-3 11 8 0 9 9 3 30 -5 19 -5 30 1 30 6 0 5 8 -1 20 -8 15 -8 20 2 20 9 0 9 3
-2 10 -12 8 -12 10 3 16 17 6 17 7 0 21 -10 8 -13 12 -6 9 6 -4 14 -2 18 4 3
5 1 10 -4 10 -6 0 -11 7 -11 15 0 8 6 15 13 15 9 0 8 3 -2 9 -9 6 -10 11 -2
15 15 10 14 29 -1 21 -7 -4 -6 0 4 7 11 10 13 19 7 30 -7 12 -4 20 8 27 17 10
17 10 -2 11 -15 0 -17 2 -6 9 8 5 10 14 6 21 -6 9 -4 11 5 5 10 -6 12 -4 7 8
-4 10 -1 17 5 17 9 0 9 3 0 12 -9 9 -8 16 6 32 9 11 11 16 5 12 -9 -5 -11 -2
-7 8 3 9 11 16 18 16 6 0 4 5 -4 10 -11 7 -11 10 -2 10 7 0 10 5 7 10 -3 6 0
10 7 10 9 0 9 3 -2 10 -12 7 -12 10 -1 10 8 0 11 6 7 16 -4 10 -2 13 6 8 7 -5
9 0 6 14 -4 12 -1 25 4 29 7 4 8 1 3 -7 -5 -8 -4 -11 3 -6 6 4 9 13 5 21 -3 9
0 22 7 30 7 9 10 18 7 22 -4 3 1 12 11 20 9 8 12 12 6 9 -6 -3 -11 1 -11 9 0
8 4 12 8 10 12 -8 29 21 24 43 -3 15 0 19 11 15 8 -3 14 -2 13 3 -4 25 2 45
13 38 6 -4 8 -3 5 4 -10 15 3 43 16 35 5 -3 7 -1 3 5 -3 6 -2 13 4 17 6 4 8
11 5 16 -4 5 -1 9 5 9 6 0 8 5 4 12 -5 8 -2 9 11 4 16 -6 16 -4 4 11 -7 10
-10 15 -5 11 4 -4 18 5 31 20 17 20 20 30 13 40 -8 9 -7 11 6 6 11 -4 16 -2
14 7 -2 8 3 13 11 11 12 -3 12 -1 0 14 -8 10 -9 15 -4 12 6 -3 16 0 23 8 7 8
9 14 5 14 -4 0 0 5 10 11 9 6 15 14 12 20 -4 5 1 9 10 9 9 0 13 5 10 10 -3 6
-1 10 5 10 6 0 8 5 5 10 -4 6 -3 10 2 9 19 -3 34 2 29 10 -8 12 21 34 33 26 6
-3 8 0 5 8 -3 8 0 18 5 22 6 3 8 12 4 18 -4 7 1 6 11 -2 15 -12 17 -12 14 0
-2 8 3 13 10 11 8 -1 11 2 7 8 -3 5 -1 10 4 10 6 0 11 5 11 11 0 5 -5 7 -12 3
-7 -4 -8 -3 -4 5 4 7 13 10 19 8 6 -2 26 12 44 31 18 18 33 30 33 26 0 -4 9 4
21 17 12 13 25 23 30 22 5 -2 13 6 19 17 6 11 17 20 24 20 18 0 57 35 49 44
-4 4 1 4 11 0 14 -5 17 -4 12 4 -4 7 -2 12 5 12 6 0 18 8 26 18 8 9 11 11 8 4
-6 -11 -3 -11 13 -1 12 7 18 17 15 22 -3 5 4 6 16 2 15 -4 21 -3 19 7 -2 8 4
12 15 10 9 -2 20 4 23 13 3 8 15 15 26 15 10 0 16 4 13 10 -3 6 1 7 9 4 9 -3
16 -1 16 6 0 6 5 8 10 5 6 -3 10 -1 10 5 0 7 7 10 15 6 10 -3 15 1 15 12 0 15
2 15 10 2 6 -10 10 -11 10 -3 0 7 3 12 8 11 16 -3 41 15 35 26 -3 6 -3 8 2 4
4 -4 17 -3 28 3 14 8 18 8 12 -1 -5 -8 0 -7 14 2 12 7 21 16 21 20 0 4 7 5 15
2 8 -4 15 -1 15 6 0 9 4 9 17 -1 9 -8 14 -9 10 -3 -8 13 20 41 30 30 3 -3 1
-6 -5 -6 -7 0 -12 -6 -12 -12 1 -7 10 -2 20 11 11 13 20 19 20 14 0 -5 7 -10
15 -10 8 0 11 5 8 10 -4 6 0 8 10 4 9 -3 18 0 21 9 3 8 11 14 18 14 9 0 9 -3
-2 -11 -12 -9 -11 -9 5 -4 11 4 26 8 33 8 6 0 12 4 12 8 0 5 13 7 30 5 16 -2
27 0 25 4 -3 4 2 11 11 14 8 3 12 2 9 -4 -3 -6 -1 -10 4 -10 6 0 11 4 11 9 0
5 11 8 25 5 15 -3 25 0 25 7 0 7 3 9 7 6 3 -4 13 -1 21 6 13 10 14 9 7 -2 -6
-11 -4 -13 11 -6 10 4 27 7 37 7 10 0 15 4 11 10 -4 6 2 6 15 -1 16 -9 21 -9
21 0 0 8 4 8 15 -1 8 -7 15 -8 15 -3 0 6 12 10 28 11 15 1 37 3 50 6 13 3 22
0 22 -7 0 -8 3 -8 8 -2 9 14 203 18 236 5 20 -7 24 -6 19 6 -4 10 0 12 11 8 9
-3 14 -9 11 -14z m-1795 -824 c0 -3 -4 -8 -10 -11 -5 -3 -10 -1 -10 4 0 6 5
11 10 11 6 0 10 -2 10 -4z m3805 -2156 c3 -5 1 -10 -4 -10 -6 0 -11 5 -11 10
0 6 2 10 4 10 3 0 8 -4 11 -10z m460 -290 c3 -5 1 -10 -4 -10 -6 0 -11 5 -11
10 0 6 2 10 4 10 3 0 8 -4 11 -10z m-733 -79 c21 -7 42 -10 48 -6 6 4 7 -1 3
-12 -6 -16 -5 -16 10 -5 13 12 18 11 29 -7 9 -15 15 -17 25 -9 9 7 13 7 13 -1
0 -6 7 -11 16 -11 8 0 13 -4 10 -9 -7 -11 13 -9 32 3 9 5 12 3 10 -5 -1 -8 2
-16 7 -17 6 -2 16 -9 24 -15 12 -10 13 -9 6 2 -6 10 -4 12 4 7 7 -5 10 -15 7
-23 -3 -8 -2 -11 4 -8 15 9 49 -17 43 -34 -4 -11 0 -9 11 4 11 14 15 15 14 5
-2 -8 3 -14 11 -12 9 2 11 -3 7 -13 -3 -9 -2 -14 3 -10 12 7 41 -5 41 -17 0
-6 -8 -4 -17 3 -16 13 -17 12 -4 -3 7 -10 17 -15 22 -12 5 3 9 -2 9 -10 0 -9
4 -16 10 -16 5 0 7 8 4 18 -2 9 1 7 7 -6 9 -16 18 -21 33 -17 12 4 17 3 11 -2
-11 -9 -17 -45 -5 -38 4 2 20 -9 35 -25 16 -17 37 -30 47 -30 11 0 16 -5 13
-10 -8 -12 12 -40 28 -40 6 0 2 7 -9 16 -18 15 -17 15 6 1 14 -8 25 -23 24
-34 -1 -16 4 -19 20 -16 17 4 18 3 6 -6 -13 -10 -13 -11 0 -12 8 -1 19 -1 23
0 5 1 6 -3 2 -9 -3 -5 -1 -10 5 -10 6 0 8 -5 4 -11 -4 -8 1 -9 17 -4 19 5 21
4 9 -4 -14 -10 -7 -16 14 -12 5 1 6 -5 3 -14 -6 -13 4 -20 25 -16 4 0 10 -10
14 -24 3 -14 10 -22 15 -19 8 5 13 -9 10 -28 0 -5 4 -8 9 -8 6 0 10 6 11 13 0
6 5 2 11 -10 6 -13 15 -23 20 -23 5 0 6 -6 2 -12 -5 -8 -1 -7 10 1 16 13 17
13 14 -5 -2 -12 2 -18 10 -16 8 1 11 -1 8 -6 -3 -5 4 -16 15 -25 10 -9 19 -14
19 -11 0 3 6 -1 13 -8 16 -16 31 -49 28 -63 -1 -5 6 -1 14 9 15 19 15 19 15
-2 0 -12 6 -22 14 -22 8 0 17 -7 20 -16 3 -8 10 -12 16 -9 6 3 7 -1 4 -9 -3
-9 -11 -13 -18 -9 -6 3 -7 2 -3 -3 5 -5 12 -9 16 -9 4 0 16 -8 26 -18 9 -10
24 -16 31 -13 8 3 13 0 11 -7 -1 -7 4 -11 12 -9 12 3 12 0 1 -12 -7 -9 -10
-17 -6 -17 3 -1 12 -2 19 -3 6 -1 11 -7 10 -14 -2 -7 4 -9 14 -5 13 5 15 2 10
-12 -7 -16 -5 -16 10 -4 9 8 14 9 10 3 -4 -6 2 -21 12 -33 14 -16 21 -18 24
-9 3 7 6 3 6 -10 1 -13 5 -20 11 -17 6 3 10 -1 10 -9 0 -9 7 -16 16 -16 8 0
13 -4 10 -8 -2 -4 9 -14 25 -21 17 -7 28 -16 25 -19 -3 -2 -12 1 -21 8 -13 11
-14 10 -9 -4 3 -9 15 -16 26 -16 13 0 18 -5 15 -14 -4 -11 -1 -13 10 -9 11 4
14 2 9 -5 -4 -7 -1 -12 7 -12 18 0 68 -56 59 -66 -4 -4 1 -4 11 -1 15 6 22 -3
18 -25 0 -5 6 -8 15 -8 8 0 12 -4 9 -10 -3 -5 1 -10 10 -10 10 0 13 -5 9 -12
-5 -8 -2 -9 10 -5 11 5 15 3 10 -5 -5 -7 -2 -9 8 -6 8 4 15 0 15 -8 0 -7 -5
-11 -11 -8 -6 3 -2 -1 8 -10 10 -8 23 -13 27 -10 5 3 9 -4 9 -14 0 -21 25 -36
42 -25 6 3 8 1 5 -4 -7 -12 38 -65 47 -56 3 4 6 -1 6 -10 0 -16 12 -22 34 -18
5 1 5 -4 -1 -11 -8 -9 -5 -18 10 -33 11 -11 17 -15 14 -9 -3 6 0 11 8 11 11 0
12 -5 3 -20 -7 -14 -7 -17 1 -13 5 4 20 -3 31 -14 12 -12 26 -18 33 -13 7 4 6
0 -2 -11 -8 -9 -10 -16 -4 -14 6 2 22 -9 37 -25 14 -15 29 -28 33 -30 5 -1 7
-5 6 -9 -2 -4 6 -10 17 -13 11 -4 20 -13 20 -21 0 -8 5 -12 10 -9 6 3 10 -4
10 -17 0 -18 2 -20 10 -8 8 12 10 11 10 -5 0 -20 52 -60 63 -49 3 3 3 -5 0
-18 -4 -18 -3 -20 6 -8 9 13 11 13 11 -2 0 -10 4 -18 8 -18 5 0 17 -7 28 -16
10 -8 14 -13 7 -10 -6 4 -15 2 -18 -4 -4 -6 -3 -10 2 -9 16 4 43 -13 36 -24
-4 -6 0 -8 11 -4 10 4 15 3 11 -3 -6 -9 7 -14 27 -11 4 0 4 -7 1 -16 -5 -12
-3 -14 8 -8 11 7 12 6 2 -7 -11 -12 -9 -17 12 -26 14 -6 25 -18 25 -26 0 -8 5
-18 12 -22 7 -5 8 -3 3 6 -5 8 -4 11 3 6 6 -4 8 -14 5 -23 -4 -11 -3 -14 5 -9
7 4 12 2 12 -4 0 -6 4 -9 8 -6 5 3 9 -1 9 -9 0 -8 -4 -12 -9 -9 -4 3 -8 0 -8
-5 0 -6 4 -11 10 -11 14 0 50 -32 50 -45 0 -5 -5 -3 -10 5 -5 8 -10 10 -10 4
0 -16 25 -35 35 -26 4 4 5 -3 1 -14 -5 -15 -2 -24 10 -28 9 -4 14 -13 10 -21
-3 -8 0 -15 6 -15 7 0 7 -4 -1 -14 -9 -11 -9 -16 0 -22 8 -4 9 -3 5 4 -4 7 -2
12 5 12 6 0 9 -8 6 -20 -3 -11 0 -18 6 -17 6 1 13 -6 15 -17 3 -13 0 -16 -10
-11 -7 3 -5 0 5 -8 14 -11 15 -16 5 -20 -8 -4 -7 -6 5 -6 9 -1 17 -6 17 -12 0
-5 -4 -8 -8 -5 -4 2 -8 -4 -8 -14 0 -10 3 -17 7 -14 4 2 9 -10 11 -26 3 -17 0
-30 -6 -30 -6 0 -2 -7 8 -15 20 -15 20 -15 0 -16 -10 0 -13 -3 -7 -6 9 -3 10
-10 3 -22 -5 -10 -6 -21 -3 -25 3 -3 1 -6 -6 -6 -7 0 -9 -5 -5 -12 5 -8 2 -9
-9 -5 -19 7 -23 -9 -4 -17 6 -3 -1 -3 -16 -1 -20 3 -27 0 -24 -8 7 -18 -123
-14 -134 4 -7 11 -9 11 -9 1 0 -10 -4 -10 -16 2 -20 20 -30 21 -14 1 11 -13
10 -14 -4 -9 -9 3 -16 10 -16 16 0 5 -10 6 -21 3 -16 -5 -19 -4 -14 6 6 9 3
11 -8 6 -10 -3 -17 -2 -17 4 0 6 -4 7 -10 4 -5 -3 -10 -1 -10 5 0 6 -5 8 -10
5 -6 -3 -13 1 -16 9 -3 9 -10 14 -14 11 -5 -3 -11 -1 -15 4 -3 6 -13 7 -22 4
-12 -5 -14 -3 -8 8 8 12 6 12 -8 0 -15 -12 -17 -12 -11 4 5 13 4 16 -4 11 -7
-4 -12 -2 -12 3 0 6 -3 10 -7 10 -23 -4 -35 3 -30 15 4 9 0 13 -11 11 -9 -1
-23 7 -30 19 -12 20 -13 20 -8 1 5 -16 1 -15 -18 8 -14 15 -31 27 -37 27 -7 0
-10 3 -6 6 12 12 -17 33 -31 22 -9 -8 -11 -7 -6 6 5 12 0 19 -15 23 -11 3 -21
10 -21 16 0 6 -3 7 -6 4 -7 -7 -50 43 -47 54 1 4 -8 5 -20 2 -16 -3 -18 -2 -8
5 16 12 -3 27 -21 16 -6 -4 -8 -3 -5 3 4 6 -1 19 -9 29 -9 10 -12 13 -8 5 5
-9 3 -12 -5 -7 -7 5 -9 17 -5 29 6 22 6 22 -10 2 -15 -20 -15 -20 -11 2 2 13
1 22 -3 22 -21 -3 -31 3 -26 16 4 10 0 13 -16 10 -18 -4 -20 -2 -9 11 6 8 9
17 5 21 -3 3 -6 1 -6 -5 0 -7 -5 -12 -12 -12 -6 0 -9 3 -5 6 8 8 -18 34 -33
34 -7 0 -9 9 -6 23 3 12 3 16 0 9 -4 -9 -11 -8 -23 7 -10 12 -22 17 -26 13 -5
-4 -5 1 -2 10 4 11 2 15 -6 13 -14 -6 -26 3 -47 30 -10 15 -7 13 15 -5 l29
-25 -25 31 c-13 17 -28 29 -32 27 -4 -3 -20 8 -34 24 -15 15 -31 27 -37 25 -5
-2 -3 4 4 13 7 8 10 18 6 22 -3 3 -6 1 -6 -5 0 -7 -7 -12 -17 -12 -9 0 -14 3
-10 6 3 4 -2 14 -11 23 -11 10 -12 12 -2 6 13 -9 13 -8 1 8 -7 9 -22 17 -33
17 -18 0 -19 2 -7 17 10 11 10 14 2 9 -8 -4 -13 -2 -13 4 0 6 -4 8 -10 5 -5
-3 -10 1 -10 9 0 9 -7 16 -16 16 -10 0 -14 5 -10 16 3 8 2 12 -4 9 -6 -3 -10
-1 -10 4 0 6 -7 11 -16 11 -8 0 -12 5 -9 10 5 9 2 10 -20 10 -3 0 -19 16 -36
35 -17 19 -34 33 -38 30 -4 -2 -8 2 -8 10 0 8 4 12 8 9 4 -2 11 0 14 6 4 6 3
10 -2 9 -22 -4 -43 2 -38 11 3 6 2 10 -4 10 -5 0 -12 -6 -15 -12 -3 -7 -3 -2
0 11 5 19 3 23 -9 18 -9 -3 -21 1 -27 9 -7 8 -9 14 -4 14 5 1 -4 8 -19 16 -23
13 -26 18 -16 30 10 12 9 13 -6 7 -15 -5 -17 -3 -12 12 6 15 5 16 -8 5 -13
-11 -16 -11 -13 1 2 10 -5 13 -22 11 -23 -2 -24 -2 -6 11 13 10 16 16 7 21 -6
4 -9 11 -7 15 3 4 -4 8 -15 8 -18 2 -18 0 3 -18 l23 -20 -27 17 c-15 9 -25 20
-22 26 8 13 -17 40 -32 34 -7 -3 -16 0 -20 6 -4 7 -3 8 4 4 7 -4 12 -2 12 3 0
10 -29 16 -53 12 -5 -1 -6 3 -2 9 3 6 12 8 18 4 7 -3 4 1 -5 9 -10 8 -18 19
-18 25 0 6 -9 9 -19 7 -14 -3 -18 1 -14 11 3 8 0 14 -7 14 -6 0 -8 5 -5 10 3
6 -4 10 -16 10 -18 0 -19 2 -9 15 11 13 10 14 -4 9 -17 -7 -46 11 -46 29 0 6
7 2 16 -9 15 -18 15 -18 4 3 -6 13 -16 20 -24 17 -8 -3 -17 0 -22 7 -4 7 -3
10 3 6 5 -3 10 0 10 8 0 8 -3 13 -6 13 -13 -3 -60 26 -55 33 3 5 -2 9 -10 9
-19 0 -21 16 -3 24 6 3 -1 3 -16 1 -18 -2 -27 0 -25 7 5 13 -26 48 -42 48 -5
0 -10 7 -10 16 0 10 -6 14 -14 11 -10 -4 -13 -1 -9 9 3 7 10 14 16 14 6 0 8 3
5 6 -4 3 -16 0 -28 -6 -15 -8 -20 -8 -16 -1 4 6 2 11 -4 11 -6 0 -8 4 -5 10 3
5 -5 15 -19 22 -14 6 -26 18 -26 25 0 8 -5 11 -11 7 -8 -4 -9 1 -4 17 5 18 4
20 -4 9 -9 -13 -12 -13 -23 -1 -11 12 -10 13 2 6 9 -5 8 0 -4 14 -11 12 -25
20 -32 17 -13 -5 -25 16 -20 37 1 6 1 9 -1 5 -8 -14 -25 -8 -20 6 4 11 -1 13
-21 10 -15 -2 -22 -1 -17 3 6 5 11 14 13 22 3 12 1 12 -14 0 -13 -10 -16 -10
-10 -1 5 8 1 19 -10 28 -11 9 -12 12 -4 8 13 -7 13 -5 2 8 -8 9 -19 15 -27 12
-23 -9 -40 34 -20 49 6 5 4 7 -5 6 -28 -3 -38 1 -44 17 -3 8 -2 12 4 9 6 -3
10 -1 10 4 0 6 -5 11 -11 11 -15 0 -39 26 -32 34 4 3 -1 6 -11 6 -9 0 -14 5
-11 10 3 6 1 10 -4 10 -6 0 -11 9 -11 19 0 11 -9 23 -20 26 -11 3 -20 10 -20
15 0 5 8 7 18 3 14 -5 13 -3 -3 10 -11 8 -24 13 -30 9 -5 -3 -4 1 3 10 9 11
10 18 2 23 -6 3 -7 11 -4 17 4 6 2 8 -4 4 -6 -3 -13 -2 -17 4 -3 5 -1 10 6 10
6 0 1 9 -12 21 -17 14 -20 22 -11 25 8 4 5 11 -10 25 -13 10 -18 18 -11 19 6
0 14 -6 16 -12 4 -9 6 -10 6 -1 1 6 -6 18 -14 27 -8 8 -15 31 -15 50 0 22 -5
36 -12 37 -10 0 -10 2 0 6 6 2 12 14 12 24 0 11 5 17 10 14 6 -3 10 1 10 9 0
9 7 16 15 16 8 0 15 5 15 12 0 6 3 9 6 5 4 -3 22 9 40 28 19 19 38 35 44 35 6
0 9 4 6 8 -7 12 31 8 76 -7z m518 -313 c0 -12 -6 -9 -26 13 -19 22 -19 22 4 8
12 -8 22 -17 22 -21z m525 -518 c10 -11 16 -20 13 -20 -3 0 -13 9 -23 20 -10
11 -16 20 -13 20 3 0 13 -9 23 -20z m-1225 -212 c0 -6 -6 -5 -15 2 -8 7 -15
14 -15 16 0 2 7 1 15 -2 8 -4 15 -11 15 -16z m2134 -684 c3 -8 2 -12 -4 -9 -6
3 -10 10 -10 16 0 14 7 11 14 -7z m-1299 -134 c3 -5 1 -10 -4 -10 -6 0 -11 5
-11 10 0 6 2 10 4 10 3 0 8 -4 11 -10z m202 -205 c0 -8 -4 -12 -9 -9 -5 3 -6
10 -3 15 9 13 12 11 12 -6z m833 -755 c0 -5 -2 -10 -4 -10 -3 0 -8 5 -11 10
-3 6 -1 10 4 10 6 0 11 -4 11 -10z"/>
<path d="M5211 6643 c-8 -14 -10 -15 -11 -3 0 13 -1 13 -10 0 -8 -13 -10 -13
-10 -1 0 11 -4 10 -16 -5 -8 -10 -13 -14 -10 -8 3 7 -1 14 -9 17 -9 4 -12 1
-9 -7 3 -9 -4 -12 -25 -11 -25 1 -29 -1 -19 -12 8 -11 7 -12 -6 -7 -9 3 -16 1
-16 -5 0 -6 -7 -11 -15 -11 -8 0 -15 -5 -15 -11 0 -5 -4 -7 -10 -4 -5 3 -10
-2 -10 -12 0 -15 -2 -16 -10 -3 -7 12 -11 8 -16 -18 -5 -24 -9 -30 -15 -20 -6
9 -9 5 -9 -14 0 -15 -6 -33 -14 -40 -10 -11 -11 -19 -4 -33 8 -13 7 -16 -1
-11 -11 7 -12 6 -16 -32 -1 -12 -5 -25 -8 -29 -4 -3 0 -21 8 -40 14 -32 13
-35 -1 -29 -13 5 -14 4 -6 -7 7 -8 8 -18 4 -22 -4 -5 -1 -5 6 -1 8 5 12 0 12
-14 0 -14 4 -19 13 -14 7 5 6 0 -3 -11 -9 -11 -10 -16 -2 -11 7 4 12 1 12 -8
0 -9 4 -16 8 -16 5 0 14 -12 20 -26 7 -15 17 -22 24 -18 8 5 9 2 5 -9 -3 -9
-1 -19 5 -23 7 -4 8 -3 4 4 -10 16 2 15 19 -2 8 -7 11 -17 7 -20 -3 -4 1 -4
11 0 12 4 17 1 18 -12 0 -11 3 -14 6 -7 3 10 7 10 18 0 7 -7 11 -16 8 -20 -3
-5 5 -4 17 3 13 7 20 8 16 2 -3 -6 3 -13 14 -17 11 -3 20 -11 20 -16 0 -5 5
-9 11 -9 5 0 7 4 4 10 -3 6 1 7 9 4 9 -3 16 -9 16 -13 0 -3 9 -12 21 -19 17
-11 20 -11 13 0 -4 7 3 4 16 -7 13 -11 20 -15 17 -8 -5 7 0 9 14 6 16 -4 17
-8 7 -14 -9 -6 -6 -9 10 -9 14 0 21 -4 16 -11 -4 -7 1 -7 16 1 15 8 20 8 16 1
-4 -6 -2 -11 3 -11 17 0 51 -33 51 -48 0 -9 6 -12 18 -8 14 5 14 4 -2 -9 -19
-14 -19 -15 -2 -15 15 0 16 -3 7 -14 -10 -11 -9 -16 4 -23 10 -6 13 -16 9 -26
-3 -9 -10 -15 -14 -12 -5 3 -12 0 -16 -6 -4 -7 -3 -9 2 -6 6 3 16 2 24 -4 12
-7 12 -9 -3 -9 -10 0 -16 -4 -13 -9 9 -14 -52 -71 -75 -71 -10 0 -19 -6 -19
-12 0 -9 -4 -8 -10 2 -8 12 -10 12 -10 1 0 -9 -8 -12 -24 -9 -14 3 -31 1 -38
-3 -7 -5 -22 -2 -35 6 -12 8 -24 11 -27 6 -3 -5 -17 -8 -31 -8 -22 0 -24 2
-13 16 11 14 10 14 -7 -1 -15 -12 -23 -13 -31 -4 -6 6 -28 11 -50 11 -28 0
-43 5 -52 20 -12 18 -13 18 -7 1 4 -15 3 -17 -8 -8 -8 7 -18 8 -22 4 -5 -4 -6
-2 -2 3 3 6 -3 16 -13 23 -15 9 -22 9 -33 -3 -8 -8 -18 -11 -22 -7 -4 4 -5 0
-3 -8 2 -8 8 -18 13 -22 6 -5 4 -8 -5 -8 -13 0 -13 -1 0 -10 8 -5 10 -10 4
-10 -7 0 -11 -19 -11 -46 0 -35 3 -44 14 -40 9 4 11 1 7 -6 -5 -7 0 -9 14 -6
16 4 22 2 22 -9 0 -13 2 -13 17 -2 9 8 14 9 10 3 -3 -6 5 -16 20 -23 25 -11
25 -11 12 6 -13 17 -12 17 15 -1 18 -11 26 -13 21 -5 -5 8 2 5 15 -6 13 -11
20 -15 17 -9 -4 7 0 15 9 18 23 9 31 7 16 -3 -11 -7 -11 -9 2 -14 9 -4 16 -1
16 5 0 7 7 3 16 -8 8 -10 13 -13 9 -6 -3 6 0 12 7 12 8 0 20 -6 27 -12 9 -9
12 -9 7 -1 -10 18 17 22 38 4 13 -11 17 -11 11 -2 -5 9 -3 12 6 9 8 -3 26 -1
41 3 21 6 30 3 38 -9 8 -14 10 -13 10 8 1 14 4 19 7 12 4 -10 8 -10 21 0 13
11 14 11 8 0 -8 -14 -5 -13 53 17 17 9 21 9 16 1 -6 -9 -2 -9 14 -1 11 7 21
14 21 17 0 3 -5 2 -12 -2 -6 -4 -8 -3 -5 4 4 5 16 8 28 5 15 -4 22 0 26 16 3
11 10 21 15 21 5 0 6 -5 2 -12 -4 -7 -3 -8 5 -4 6 4 9 11 6 16 -7 11 20 32 30
22 5 -4 5 -2 2 5 -4 6 0 19 9 27 11 12 12 16 2 16 -8 0 -9 3 -2 8 23 16 38 73
21 84 -9 6 -8 8 2 8 7 0 11 6 8 15 -4 8 -2 17 4 21 7 4 6 10 0 18 -6 7 -8 16
-4 19 3 4 1 7 -7 7 -10 0 -10 3 0 15 10 12 10 15 0 15 -8 0 -11 9 -8 25 4 17
1 25 -8 25 -8 0 -14 9 -14 20 0 11 -5 20 -11 20 -5 0 -7 5 -4 10 6 9 -8 14
-28 11 -5 -1 -6 3 -3 8 4 5 -3 12 -14 16 -11 3 -20 13 -20 21 0 8 -9 14 -21
14 -11 0 -17 5 -14 10 3 6 -3 10 -15 10 -11 0 -23 6 -26 14 -3 8 -13 17 -21
20 -12 5 -13 3 -7 -7 5 -7 1 -4 -8 6 -13 14 -18 15 -19 6 0 -8 -4 -4 -9 8 -7
16 -14 20 -31 16 -18 -5 -21 -3 -16 10 4 11 2 14 -8 11 -8 -3 -21 1 -30 10 -9
8 -23 12 -31 9 -9 -3 -19 -1 -23 5 -4 7 -19 13 -33 14 -23 2 -25 5 -16 21 5
11 6 17 1 14 -16 -9 -55 13 -49 28 3 8 0 14 -7 12 -7 -1 -12 8 -11 21 0 14 -5
22 -15 22 -10 0 -12 3 -5 8 6 4 10 19 10 35 -1 15 3 27 9 27 5 0 3 5 -5 10
-12 8 -12 10 5 10 17 0 17 2 5 10 -14 9 -7 14 13 11 5 -1 7 4 5 11 -7 19 34
49 50 36 8 -7 12 -7 12 2 0 8 3 11 6 8 3 -4 19 -2 35 2 20 6 29 5 29 -3 0 -8
3 -8 8 -2 10 14 32 17 32 4 0 -5 4 -8 9 -5 5 3 14 -1 21 -9 9 -11 16 -12 25
-5 12 10 65 -8 65 -22 0 -5 7 -8 16 -8 9 0 12 -5 8 -12 -5 -8 -1 -8 12 2 10 8
16 11 12 6 -8 -10 15 -36 31 -36 6 0 11 5 11 12 0 6 3 8 6 5 4 -4 1 -13 -6
-22 -11 -13 -10 -14 4 -9 9 3 16 10 16 15 0 5 17 25 37 45 33 32 35 38 24 57
-11 18 -11 20 0 10 7 -7 18 -13 24 -13 5 1 -1 9 -14 20 -12 11 -27 17 -32 14
-5 -3 -9 4 -9 15 0 14 -5 19 -14 15 -8 -3 -25 4 -38 15 -12 12 -28 19 -35 17
-7 -3 -13 1 -13 9 0 8 -5 15 -11 15 -5 0 -7 -5 -3 -11 4 -7 -1 -7 -16 1 -12 6
-24 9 -27 6 -4 -3 -13 -1 -20 6 -19 15 -53 18 -53 4 0 -8 -3 -8 -8 0 -4 6 -25
11 -48 11 -22 0 -46 3 -52 7 -6 3 -15 -2 -21 -11z m153 -148 c-4 -8 -8 -15
-10 -15 -2 0 -4 7 -4 15 0 8 4 15 10 15 5 0 7 -7 4 -15z m-399 -765 c3 -5 1
-10 -4 -10 -6 0 -11 5 -11 10 0 6 2 10 4 10 3 0 8 -4 11 -10z"/>
<path d="M3081 6635 c-1 -17 -3 -18 -12 -5 -9 12 -10 10 -6 -8 4 -15 0 -25 -9
-29 -13 -5 -12 -9 3 -26 10 -11 12 -17 6 -13 -7 4 -13 3 -13 -3 0 -5 -3 -18
-6 -28 -5 -15 -4 -15 5 -3 13 19 14 5 2 -38 -6 -20 -6 -30 0 -27 5 4 9 -3 9
-14 0 -10 -6 -22 -12 -24 -10 -4 -9 -6 1 -6 11 -1 10 -6 -3 -25 -11 -18 -13
-27 -4 -32 6 -4 8 -3 4 4 -3 6 -2 13 4 17 5 3 10 -3 10 -14 0 -10 -6 -22 -12
-24 -10 -4 -10 -6 0 -6 6 -1 12 -6 12 -12 0 -5 -6 -7 -12 -3 -9 5 -9 2 1 -9 9
-11 10 -17 2 -17 -6 0 -11 -5 -11 -11 0 -5 5 -7 10 -4 7 4 8 -3 4 -20 -4 -18
-2 -30 7 -36 11 -7 10 -9 -5 -9 -15 0 -16 -3 -6 -15 7 -8 8 -15 3 -15 -5 0
-10 -7 -10 -15 0 -11 3 -12 14 -3 12 10 12 7 2 -16 -10 -21 -10 -32 -1 -46 9
-15 9 -18 -1 -14 -9 3 -13 -5 -12 -25 0 -24 2 -27 14 -18 12 9 13 9 7 -1 -14
-23 -25 -73 -15 -67 5 4 9 -3 9 -14 0 -10 -6 -22 -12 -24 -10 -4 -9 -6 1 -6
11 -1 10 -6 -3 -25 -11 -18 -13 -27 -4 -32 6 -4 8 -3 4 4 -3 6 -2 13 4 17 5 3
10 -3 10 -14 0 -12 -6 -21 -12 -21 -10 0 -9 -3 1 -9 11 -7 11 -9 0 -14 -10 -4
-10 -6 -1 -6 6 -1 12 -6 12 -12 0 -5 -4 -8 -8 -5 -5 3 -9 -1 -9 -9 0 -8 4 -12
9 -9 5 3 6 -6 2 -20 -4 -16 -1 -32 6 -41 11 -13 10 -14 -6 -8 -17 6 -18 5 -4
-12 8 -10 10 -16 3 -12 -6 4 -15 2 -19 -4 -5 -8 -3 -9 6 -4 10 6 12 4 6 -10
-5 -15 -4 -16 9 -5 14 12 15 11 4 -14 -10 -21 -10 -32 -1 -46 10 -17 9 -18 -6
-13 -15 6 -15 5 -3 -10 12 -15 12 -17 0 -14 -8 2 -11 2 -6 0 4 -3 7 -10 7 -16
0 -18 35 -36 50 -27 8 5 21 5 30 0 11 -6 25 -4 40 7 13 9 20 11 16 5 -3 -6 -2
-13 3 -16 5 -4 13 -2 16 4 5 8 12 7 23 -2 12 -10 14 -10 8 0 -4 6 -2 12 3 12
6 0 11 -5 11 -12 0 -9 3 -9 12 0 16 16 31 15 22 0 -5 -9 -2 -9 9 1 14 11 17
11 17 0 0 -12 2 -12 9 0 6 9 11 10 15 2 4 -6 13 -8 19 -4 7 4 23 9 37 10 20 3
22 1 10 -8 -13 -9 -12 -10 3 -5 10 3 21 6 23 6 3 0 3 4 0 8 -3 5 1 9 9 9 8 0
12 -4 10 -8 -3 -4 4 -5 15 -2 11 3 17 9 14 14 -3 5 1 6 9 3 8 -3 18 0 22 6 5
8 11 8 21 -1 10 -8 14 -8 14 0 0 6 6 10 13 8 6 -1 11 4 9 11 -2 10 2 10 17 3
14 -8 22 -7 32 7 13 16 12 16 -6 2 -19 -14 -19 -14 -6 2 7 10 17 15 22 12 5
-2 16 4 26 16 10 11 23 20 31 20 7 0 10 5 7 10 -3 6 1 10 10 10 9 0 13 5 10
10 -3 6 -1 10 4 10 6 0 11 7 11 15 0 8 5 15 11 15 5 0 8 4 5 9 -3 5 2 15 12
22 15 13 16 12 3 -3 -8 -11 -9 -18 -3 -18 11 0 37 73 35 97 0 7 4 10 10 6 6
-4 8 0 4 10 -3 10 -2 17 2 17 5 0 7 9 4 20 -3 11 -1 20 4 20 5 0 9 10 8 23 -1
12 2 30 7 40 6 11 5 17 -2 17 -6 0 -8 5 -5 10 4 6 12 8 18 4 7 -3 4 1 -5 8
-15 13 -15 15 0 26 9 7 12 10 6 7 -16 -7 -26 22 -12 31 7 4 8 3 4 -4 -5 -8 -1
-10 9 -5 9 3 12 9 7 12 -6 3 -12 17 -13 31 -2 14 -8 28 -14 32 -5 4 -1 8 10 8
12 0 16 3 9 8 -15 10 -25 42 -13 42 6 0 7 6 2 13 -4 6 -6 21 -5 32 2 17 1 17
-7 5 -6 -8 -11 -10 -11 -4 0 5 5 15 11 21 7 7 5 15 -7 27 -9 9 -14 20 -10 23
3 3 0 13 -7 21 -10 13 -9 14 3 7 13 -8 13 -6 2 8 -8 9 -10 22 -6 28 4 8 3 9
-4 5 -7 -4 -12 -1 -12 8 0 9 -4 16 -10 16 -5 0 -10 9 -10 21 0 12 -4 17 -11
13 -8 -4 -9 0 -4 15 5 16 3 20 -9 15 -15 -6 -22 11 -17 39 1 4 -8 3 -20 -4
-12 -6 -19 -7 -15 -1 7 11 -28 54 -38 45 -3 -3 -6 1 -6 10 0 11 -5 14 -17 10
-12 -5 -14 -3 -8 7 6 10 4 12 -8 7 -10 -4 -17 -2 -17 4 0 6 -7 8 -16 5 -8 -3
-12 -2 -9 4 3 6 2 10 -4 10 -5 0 -12 -6 -14 -12 -3 -8 -6 -5 -6 6 -1 14 -7 17
-30 14 -18 -3 -28 0 -24 6 4 5 -1 7 -10 3 -10 -4 -17 -2 -17 4 0 6 -6 9 -14 6
-8 -3 -17 -1 -20 6 -2 7 -5 4 -5 -7 -1 -16 -3 -16 -19 5 -15 17 -21 19 -27 9
-5 -8 -4 -11 3 -6 6 3 13 2 17 -3 3 -6 -6 -7 -22 -4 -16 3 -73 5 -128 5 -59 0
-106 5 -114 12 -11 8 -13 8 -7 -1 4 -8 2 -13 -8 -13 -8 0 -17 6 -19 13 -3 6
-6 3 -6 -8z m169 -157 c0 -5 6 -6 12 -2 19 12 48 12 48 0 0 -7 3 -7 8 1 8 13
29 13 50 0 7 -5 12 -3 12 5 0 9 3 9 10 -2 9 -13 10 -13 10 0 0 13 2 13 9 1 5
-8 24 -16 43 -17 18 -1 35 -3 38 -4 3 -1 9 -2 13 -1 5 1 6 -3 2 -9 -5 -8 -12
-7 -23 2 -15 12 -16 11 -3 -4 7 -10 25 -18 38 -18 18 0 24 -4 20 -14 -4 -10 0
-13 14 -11 17 4 19 2 8 -11 -10 -12 -9 -13 5 -8 14 6 21 -5 17 -28 0 -5 6 -8
15 -8 11 0 15 -6 11 -20 -3 -11 -1 -18 4 -14 9 5 13 -9 10 -33 -1 -6 4 -15 10
-19 8 -5 9 -3 4 6 -5 9 -4 11 3 6 8 -4 8 -15 2 -31 -7 -19 -6 -27 8 -34 10 -6
12 -11 5 -11 -7 0 -13 -5 -13 -11 0 -5 4 -7 10 -4 6 4 8 -6 6 -24 -2 -18 1
-31 8 -31 7 0 7 -3 1 -8 -5 -4 -10 -16 -10 -27 0 -11 5 -23 10 -27 6 -5 5 -8
-3 -8 -10 0 -10 -5 -2 -20 6 -11 7 -20 2 -20 -5 0 -8 -13 -7 -30 1 -16 -2 -30
-7 -30 -5 0 -4 -10 3 -21 6 -12 7 -19 1 -15 -5 3 -12 -1 -16 -9 -3 -8 0 -15 7
-15 8 0 8 -3 -2 -9 -7 -5 -10 -14 -7 -20 5 -7 2 -10 -6 -9 -8 2 -12 -4 -10
-16 2 -12 -1 -16 -9 -10 -9 5 -10 2 -6 -10 5 -13 3 -17 -7 -13 -8 3 -13 -1
-12 -11 1 -11 -6 -16 -17 -16 -13 2 -15 -1 -7 -10 13 -16 3 -26 -18 -19 -11 5
-13 3 -7 -7 5 -8 3 -11 -6 -8 -8 3 -19 -4 -26 -16 -7 -12 -12 -15 -13 -8 0 6
-5 12 -11 12 -5 0 -7 -4 -4 -10 3 -5 -3 -10 -14 -10 -12 0 -21 -6 -22 -12 0
-10 -2 -10 -6 0 -4 10 -8 10 -19 1 -11 -9 -14 -8 -14 2 -1 10 -4 8 -11 -4 -8
-13 -14 -15 -30 -7 -14 8 -19 7 -19 -2 0 -8 -3 -9 -8 -3 -11 16 -54 14 -48 -2
3 -8 1 -11 -4 -8 -6 3 -10 13 -10 21 0 8 -5 14 -11 14 -5 0 -8 -4 -5 -9 3 -5
-5 -11 -19 -13 -20 -4 -23 -3 -14 8 9 11 8 14 -1 14 -10 0 -10 3 -1 14 9 11 9
16 0 22 -8 5 -9 3 -4 -6 5 -9 4 -11 -4 -6 -9 6 -9 11 0 23 14 16 20 55 8 48
-4 -3 -9 4 -12 15 -3 11 0 23 5 27 7 4 8 1 3 -7 -5 -9 -4 -11 4 -6 6 4 8 13 4
19 -12 20 -12 41 0 56 8 10 8 13 1 8 -7 -4 -11 2 -11 18 0 14 3 22 7 20 11 -7
6 22 -5 32 -4 4 -5 2 0 -6 6 -10 4 -12 -4 -7 -9 6 -9 11 0 23 14 16 20 55 8
48 -4 -3 -9 4 -12 15 -3 11 0 23 5 27 7 4 8 1 3 -7 -5 -9 -4 -11 4 -6 6 4 8
13 4 19 -12 19 -13 46 -3 52 6 3 10 12 10 18 0 8 -3 8 -9 -1 -6 -10 -10 -7
-13 12 -3 15 -1 29 5 33 6 4 7 1 2 -7 -5 -9 -4 -11 4 -6 6 4 8 13 4 19 -12 20
-12 41 0 56 8 10 8 13 1 8 -7 -4 -11 2 -11 18 0 14 3 23 7 20 3 -2 7 2 7 10 0
8 -4 12 -8 10 -4 -3 -10 2 -13 11 -3 8 -2 13 3 10 5 -3 11 1 15 9 3 8 1 17 -3
20 -13 8 -19 55 -8 62 6 4 7 1 2 -7 -5 -8 -4 -11 3 -6 6 4 9 13 6 21 -4 8 -11
12 -18 8 -7 -4 -7 -1 1 8 14 17 43 21 43 7z"/>
<path d="M4010 6637 c0 -10 -4 -15 -10 -12 -6 3 -10 -5 -10 -19 0 -13 -3 -31
-6 -40 -3 -9 -1 -16 6 -16 6 0 8 5 4 12 -4 7 -3 8 4 4 6 -4 9 -13 6 -21 -4 -8
-9 -13 -14 -10 -4 2 -4 -13 0 -35 5 -25 4 -37 -2 -33 -6 3 -7 -4 -2 -18 11
-34 11 -82 1 -96 -11 -15 1 -35 16 -27 7 3 5 -1 -5 -8 -12 -10 -13 -19 -7 -31
8 -13 6 -17 -6 -17 -15 0 -15 -1 -1 -16 19 -18 21 -34 5 -34 -8 0 -7 -6 2 -17
8 -9 9 -14 3 -10 -8 5 -9 -5 -4 -33 4 -22 5 -40 2 -40 -2 0 1 -7 8 -15 10 -12
9 -16 -4 -21 -13 -5 -14 -9 -5 -20 9 -11 8 -14 -1 -14 -9 0 -7 -7 4 -25 15
-22 15 -26 2 -31 -12 -5 -13 -11 -5 -25 8 -15 6 -19 -6 -19 -15 0 -15 -1 -1
-16 19 -18 21 -34 5 -34 -8 0 -7 -6 2 -17 8 -9 10 -14 4 -11 -6 3 -10 -5 -10
-18 0 -13 3 -24 8 -24 4 0 7 5 7 12 0 6 3 8 7 4 5 -4 -1 -14 -11 -22 -11 -8
-15 -14 -9 -14 8 0 9 -10 2 -32 -12 -43 -12 -43 9 -27 15 12 16 12 5 -2 -7 -9
-9 -20 -5 -24 4 -5 1 -5 -5 -1 -7 4 -13 2 -13 -3 0 -6 5 -11 10 -11 6 0 10 -5
10 -11 0 -5 -4 -8 -9 -5 -4 3 -5 -12 -1 -34 6 -33 4 -40 -9 -41 -12 0 -11 -2
4 -9 14 -6 15 -9 5 -10 -12 0 -11 -4 4 -15 17 -13 17 -15 3 -15 -10 0 -14 -5
-11 -14 3 -9 12 -12 21 -9 10 4 14 2 10 -4 -8 -13 11 -12 32 2 10 5 16 4 19
-4 3 -9 7 -9 18 0 11 9 14 9 14 0 0 -8 5 -9 19 -1 14 7 21 6 24 -3 3 -7 6 -5
6 6 2 28 2 32 12 43 5 6 6 14 1 18 -11 12 -9 406 3 406 7 0 7 3 0 8 -13 8 -14
332 -2 332 4 0 5 6 2 13 -4 6 1 3 9 -7 13 -16 13 -22 3 -35 -9 -12 -9 -13 1
-7 7 4 12 1 12 -9 0 -10 5 -13 12 -9 6 4 8 3 4 -4 -3 -6 -2 -13 4 -17 5 -3 10
-11 10 -17 0 -6 -7 -5 -17 3 -16 12 -17 12 -6 -2 7 -9 11 -19 8 -22 -3 -4 -2
-5 2 -2 11 8 32 -16 26 -31 -3 -8 0 -14 6 -14 6 0 11 -11 11 -25 0 -14 5 -25
10 -25 7 0 7 -7 -1 -21 -6 -12 -7 -19 -1 -15 5 3 15 -1 22 -9 10 -12 10 -18
-1 -32 -8 -9 -9 -14 -4 -11 6 4 17 3 25 -3 8 -5 10 -9 4 -9 -6 0 -11 -7 -11
-15 0 -8 5 -11 10 -8 6 4 8 0 4 -10 -3 -10 -2 -17 3 -17 6 0 9 -6 8 -12 -2 -7
2 -12 7 -11 6 1 10 -14 10 -32 -1 -20 2 -32 8 -28 6 4 8 0 4 -10 -3 -9 -1 -19
5 -23 7 -5 8 -2 3 6 -5 9 -4 11 4 6 9 -6 9 -11 -1 -24 -7 -9 -8 -13 -2 -9 7 4
18 -1 25 -10 12 -15 12 -16 -3 -10 -12 4 -15 2 -12 -8 3 -7 12 -16 20 -19 9
-3 12 -11 8 -17 -3 -6 -1 -14 5 -18 6 -4 13 -17 16 -29 2 -12 7 -27 11 -34 5
-7 2 -9 -7 -4 -8 4 -5 0 5 -8 14 -11 15 -16 6 -16 -9 0 -7 -5 6 -15 14 -10 15
-14 5 -15 -11 0 -9 -4 5 -15 10 -8 15 -15 9 -15 -5 0 -3 -5 5 -10 11 -7 11
-10 2 -10 -10 0 -10 -3 0 -14 7 -8 18 -11 23 -8 6 3 5 -1 -2 -9 -8 -10 -9 -19
-1 -29 8 -12 9 -11 4 4 -6 16 -4 17 9 6 8 -7 15 -9 15 -6 0 4 8 2 18 -3 11 -6
24 -6 32 -1 9 5 20 4 29 -3 12 -9 13 -9 7 1 -4 6 -2 12 3 12 6 0 11 -5 11 -12
0 -9 3 -9 12 0 8 8 17 8 31 1 14 -8 18 -8 13 0 -4 6 0 11 11 11 15 0 18 8 17
58 -1 33 -5 65 -9 72 -5 8 -4 11 2 7 5 -3 9 12 9 39 -1 24 -5 44 -11 44 -7 0
-7 3 0 8 6 4 10 30 10 57 0 28 -4 53 -10 57 -7 5 -7 8 0 8 6 0 10 92 10 255 0
163 -4 255 -10 255 -7 0 -7 3 0 8 6 4 10 30 10 57 0 28 -4 53 -10 57 -7 5 -6
8 1 8 8 0 10 25 5 84 -1 4 -8 6 -16 3 -8 -4 -17 -2 -20 2 -3 5 -15 7 -27 3
-16 -4 -19 -2 -13 8 5 9 0 7 -15 -3 -22 -15 -25 -15 -42 0 -18 16 -18 16 -12
-2 5 -12 4 -16 -3 -12 -7 4 -10 -12 -8 -48 1 -34 -3 -55 -9 -55 -7 0 -7 -3 -1
-8 15 -10 18 -55 3 -46 -7 5 -8 3 -3 -6 13 -20 14 -71 2 -63 -6 4 -7 1 -2 -6
11 -19 13 -171 2 -164 -6 4 -7 1 -2 -7 11 -18 14 -111 4 -104 -5 3 -4 -7 1
-21 13 -34 13 -38 -2 -29 -7 5 -8 3 -3 -6 13 -20 14 -71 2 -63 -6 4 -7 1 -2
-7 12 -20 13 -104 1 -112 -7 -5 -6 -8 3 -8 11 0 11 -3 0 -17 -8 -9 -9 -14 -3
-10 6 3 11 0 11 -8 0 -8 -4 -15 -9 -15 -5 0 -6 -5 -2 -12 4 -7 3 -8 -5 -4 -6
4 -9 11 -6 15 2 5 -4 19 -15 31 -11 12 -17 27 -14 31 3 5 -2 17 -11 26 -13 13
-14 18 -4 24 10 6 9 10 -5 15 -14 5 -15 9 -4 15 10 7 10 9 1 9 -7 0 -13 9 -13
20 0 11 -4 20 -10 20 -5 0 -10 11 -10 25 0 14 -4 25 -10 25 -5 0 -6 8 -3 17 5
12 2 15 -8 11 -10 -4 -15 1 -15 13 0 11 4 19 9 19 5 0 1 7 -8 16 -9 9 -14 23
-11 30 3 8 2 14 -2 14 -10 0 -32 50 -32 72 0 10 -5 18 -11 18 -5 0 -7 5 -4 10
3 6 2 10 -4 10 -6 0 -8 7 -5 15 4 8 1 15 -6 15 -7 0 -10 8 -7 20 3 11 1 18 -3
15 -5 -3 -11 -1 -15 5 -3 5 -1 10 6 10 7 0 5 8 -7 22 -10 12 -13 18 -7 14 9
-5 11 -2 7 8 -3 9 -10 13 -15 10 -5 -3 -9 6 -9 20 0 14 -5 28 -11 31 -6 4 -8
13 -5 20 3 8 -2 19 -10 26 -8 7 -12 19 -9 27 3 9 0 12 -7 9 -9 -3 -14 7 -15
30 -3 46 -29 66 -59 46 -19 -12 -24 -12 -38 2 -15 15 -16 15 -17 -2 0 -10 -3
-13 -5 -7 -3 7 -14 9 -26 6 -16 -4 -19 -2 -13 9 7 12 6 12 -9 0 -15 -13 -19
-13 -27 0 -7 11 -9 11 -9 -4z"/>
<path d="M5160 6475 c-7 -9 -11 -17 -9 -20 3 -2 10 5 17 15 14 24 10 26 -8 5z"/>
<path d="M3975 6411 c-3 -5 -2 -12 3 -15 5 -3 9 1 9 9 0 17 -3 19 -12 6z"/>
<path d="M3970 6119 c0 -5 5 -7 10 -4 6 3 10 8 10 11 0 2 -4 4 -10 4 -5 0 -10
-5 -10 -11z"/>
<path d="M3978 6003 c7 -3 16 -2 19 1 4 3 -2 6 -13 5 -11 0 -14 -3 -6 -6z"/>
<path d="M4393 5745 c0 -8 4 -12 9 -9 5 3 6 10 3 15 -9 13 -12 11 -12 -6z"/>
<path d="M5719 4823 c-13 -16 -12 -17 4 -4 9 7 17 15 17 17 0 8 -8 3 -21 -13z"/>
<path d="M7570 3271 c0 -5 7 -12 16 -15 14 -5 15 -4 4 9 -14 17 -20 19 -20 6z"/>
<path d="M7070 2966 c0 -2 7 -7 16 -10 8 -3 12 -2 9 4 -6 10 -25 14 -25 6z"/>
<path d="M7115 2931 c-3 -5 -2 -12 3 -15 5 -3 9 1 9 9 0 17 -3 19 -12 6z"/>
<path d="M7235 2821 c-3 -5 -2 -12 3 -15 5 -3 9 1 9 9 0 17 -3 19 -12 6z"/>
<path d="M8070 2766 c0 -2 7 -7 16 -10 8 -3 12 -2 9 4 -6 10 -25 14 -25 6z"/>
<path d="M7490 2559 c0 -5 5 -7 10 -4 6 3 10 8 10 11 0 2 -4 4 -10 4 -5 0 -10
-5 -10 -11z"/>
<path d="M7870 2186 c0 -2 8 -10 18 -17 15 -13 16 -12 3 4 -13 16 -21 21 -21
13z"/>
<path d="M7042 4424 c10 -10 20 -16 22 -13 3 3 -5 11 -17 18 -21 13 -21 12 -5
-5z"/>
<path d="M7090 4366 c0 -2 6 -9 14 -15 11 -9 16 -9 22 0 4 8 3 9 -4 5 -7 -4
-12 -2 -12 3 0 6 -4 11 -10 11 -5 0 -10 -2 -10 -4z"/>
<path d="M7405 4060 c3 -5 8 -10 11 -10 2 0 4 5 4 10 0 6 -5 10 -11 10 -5 0
-7 -4 -4 -10z"/>
<path d="M7520 3946 c0 -2 7 -9 15 -16 9 -7 15 -8 15 -2 0 5 -7 12 -15 16 -8
3 -15 4 -15 2z"/>
<path d="M7790 3680 c0 -5 5 -10 11 -10 5 0 7 5 4 10 -3 6 -8 10 -11 10 -2 0
-4 -4 -4 -10z"/>
<path d="M5826 3607 c3 -10 9 -15 12 -12 3 3 0 11 -7 18 -10 9 -11 8 -5 -6z"/>
<path d="M8075 3401 c-3 -5 -2 -12 3 -15 5 -3 9 1 9 9 0 17 -3 19 -12 6z"/>
<path d="M8195 3280 c3 -5 8 -10 11 -10 2 0 4 5 4 10 0 6 -5 10 -11 10 -5 0
-7 -4 -4 -10z"/>
<path d="M8610 2866 c0 -2 8 -10 18 -17 15 -13 16 -12 3 4 -13 16 -21 21 -21
13z"/>
<path d="M6605 2800 c3 -5 11 -10 16 -10 6 0 7 5 4 10 -3 6 -11 10 -16 10 -6
0 -7 -4 -4 -10z"/>
<path d="M6730 2686 c0 -2 8 -10 18 -17 15 -13 16 -12 3 4 -13 16 -21 21 -21
13z"/>
<path d="M7603 1822 c10 -10 15 -21 12 -24 -3 -2 2 -5 10 -5 12 0 10 6 -7 24
-25 27 -39 32 -15 5z"/>
</g>
</svg>
